<?xml version="1.0" encoding="UTF-8" standalone="no"?>
<!-- Created with Inkscape (http://www.inkscape.org/) -->

<svg
   xmlns:dc="http://purl.org/dc/elements/1.1/"
   xmlns:cc="http://creativecommons.org/ns#"
   xmlns:rdf="http://www.w3.org/1999/02/22-rdf-syntax-ns#"
   xmlns:svg="http://www.w3.org/2000/svg"
   xmlns="http://www.w3.org/2000/svg"
   xmlns:sodipodi="http://sodipodi.sourceforge.net/DTD/sodipodi-0.dtd"
   xmlns:inkscape="http://www.inkscape.org/namespaces/inkscape"
   width="1200mm"
   height="610mm"
   viewBox="0 0 1200 610"
   version="1.1"
   id="svg8"
   inkscape:version="0.92.3 (2405546, 2018-03-11)"
   sodipodi:docname="arch.svg">
  <defs
     id="defs2" />
  <sodipodi:namedview
     id="base"
     pagecolor="#ffffff"
     bordercolor="#666666"
     borderopacity="1.0"
     inkscape:pageopacity="0.0"
     inkscape:pageshadow="2"
     inkscape:zoom="2.8"
     inkscape:cx="37.804573"
     inkscape:cy="2250.0685"
     inkscape:document-units="mm"
     inkscape:current-layer="layer1"
     showgrid="true"
     inkscape:window-width="2005"
     inkscape:window-height="1056"
     inkscape:window-x="1471"
     inkscape:window-y="470"
     inkscape:window-maximized="0">
    <inkscape:grid
       type="xygrid"
       id="grid815"
       units="mm"
       spacingx="1"
       spacingy="1"
       dotted="true" />
  </sodipodi:namedview>
  <metadata
     id="metadata5">
    <rdf:RDF>
      <cc:Work
         rdf:about="">
        <dc:format>image/svg+xml</dc:format>
        <dc:type
           rdf:resource="http://purl.org/dc/dcmitype/StillImage" />
        <dc:title></dc:title>
      </cc:Work>
    </rdf:RDF>
  </metadata>
  <g
     inkscape:label="Layer 1"
     inkscape:groupmode="layer"
     id="layer1"
     transform="translate(0,313)">
    <path
       style="fill:none;fill-opacity:1;stroke:#ff0000;stroke-width:0.1;stroke-miterlimit:4;stroke-dasharray:none;stroke-dashoffset:0;stroke-opacity:1"
       d="m 0.76828753,-312.29977 v 13.99967 H 3.273558 a 30.000001,5.9999999 0 0 1 -0.0052,-0.0305 30.000001,5.9999999 0 0 1 29.999712,-6.00015 30.000001,5.9999999 0 0 1 30.000245,6.00015 30.000001,5.9999999 0 0 1 -0.0078,0.0305 h 2.507856 v -13.99967 z"
       id="rect816"
       inkscape:connector-curvature="0" />
    <path
       id="path821"
       d="m 65.768456,-284.01252 v -13.99966 H 63.26318 a 30.000001,5.9999999 0 0 1 0.0052,0.0305 30.000001,5.9999999 0 0 1 -29.999743,6.00015 30.000001,5.9999999 0 0 1 -30.000226,-6.00015 30.000001,5.9999999 0 0 1 0.0077,-0.0305 H 0.76828753 v 13.99966 z"
       style="fill:none;fill-opacity:1;stroke:#ff0000;stroke-width:0.1;stroke-miterlimit:4;stroke-dasharray:none;stroke-dashoffset:0;stroke-opacity:1"
       inkscape:connector-curvature="0" />
  </g>
</svg>
