<?xml version="1.0" encoding="UTF-8" standalone="no"?>
<svg
   xmlns:dc="http://purl.org/dc/elements/1.1/"
   xmlns:cc="http://creativecommons.org/ns#"
   xmlns:rdf="http://www.w3.org/1999/02/22-rdf-syntax-ns#"
   xmlns:svg="http://www.w3.org/2000/svg"
   xmlns="http://www.w3.org/2000/svg"
   xmlns:sodipodi="http://sodipodi.sourceforge.net/DTD/sodipodi-0.dtd"
   xmlns:inkscape="http://www.inkscape.org/namespaces/inkscape"
   version="1.1"
   width="1220mm"
   height="610mm"
   viewBox="0 0 4322.8383 2161.4192"
   id="svg2"
   inkscape:version="0.91 r13725"
   sodipodi:docname="box2.svg">
  <metadata
     id="metadata34">
    <rdf:RDF>
      <cc:Work
         rdf:about="">
        <dc:format>image/svg+xml</dc:format>
        <dc:type
           rdf:resource="http://purl.org/dc/dcmitype/StillImage" />
        <dc:title></dc:title>
      </cc:Work>
    </rdf:RDF>
  </metadata>
  <defs
     id="defs32" />
  <sodipodi:namedview
     pagecolor="#ffffff"
     bordercolor="#666666"
     borderopacity="1"
     objecttolerance="10"
     gridtolerance="10"
     guidetolerance="10"
     inkscape:pageopacity="0"
     inkscape:pageshadow="2"
     inkscape:window-width="3840"
     inkscape:window-height="2136"
     id="namedview30"
     showgrid="false"
     width="1220mm"
     inkscape:zoom="2"
     inkscape:cx="320.13025"
     inkscape:cy="1735.7207"
     inkscape:window-x="0"
     inkscape:window-y="24"
     inkscape:window-maximized="1"
     inkscape:current-layer="svg2"
     showguides="true"
     inkscape:guide-bbox="true"
     inkscape:document-units="mm">
    <sodipodi:guide
       position="-29.500026,1949.7518"
       orientation="0,1"
       id="guide3601" />
    <sodipodi:guide
       position="-28.000025,1938.5018"
       orientation="0,1"
       id="guide3603" />
    <sodipodi:guide
       position="204.50018,1701.5015"
       orientation="1,0"
       id="guide4424" />
    <sodipodi:guide
       position="20.000018,1602.5015"
       orientation="1,0"
       id="guide4426" />
    <sodipodi:guide
       position="76.500068,1628.5015"
       orientation="1,0"
       id="guide4428" />
    <sodipodi:guide
       position="147.00013,1596.5015"
       orientation="1,0"
       id="guide4430" />
  </sodipodi:namedview>
  <!-- Front-->
  <!-- Back-->
  <!-- Left-->
  <!-- Right-->
  <!-- Top-->
  <!-- Bottom-->
  <rect
     style="fill:none;fill-rule:evenodd;stroke:#ff0000;stroke-width:1.00000083;stroke-linecap:butt;stroke-linejoin:miter;stroke-miterlimit:4;stroke-dasharray:none;stroke-opacity:1"
     id="rect3362"
     width="1062.9921"
     height="885.82678"
     x="-0.66666198"
     y="0.083909154" />
  <rect
     style="fill:none;stroke:#ff0000;stroke-width:1.32596076;stroke-miterlimit:4;stroke-dasharray:none;stroke-opacity:1"
     id="rect4164"
     width="599.95233"
     height="716.14685"
     x="-0.50368464"
     y="0.49687386" />
  <g
     transform="translate(20.261015,18.224011)"
     id="g3554">
    <polygon
       style="fill:none;stroke:#000000;stroke-width:0.90000075"
       points="173.62219,51.377995 184.25212,51.377995 184.25212,69.094545 173.62219,69.094545 173.62219,86.811095 184.25212,86.811095 184.25212,104.52764 173.62219,104.52764 173.62219,122.24419 184.25212,122.24419 184.25212,139.96074 173.62219,139.96074 173.62219,157.67729 184.25212,157.67729 184.25212,175.39384 173.62219,175.39384 173.62219,193.11039 184.25212,193.11039 184.25212,210.82694 173.62219,210.82694 173.62219,228.54349 184.25212,228.54349 184.25212,246.26004 173.62219,246.26004 173.62219,271.94904 184.25212,271.94904 184.25212,297.63804 160.33478,297.63804 160.33478,287.00811 136.41743,287.00811 136.41743,297.63804 118.70088,297.63804 118.70088,287.00811 100.98433,287.00811 100.98433,297.63804 83.267785,297.63804 83.267785,287.00811 65.551235,287.00811 65.551235,297.63804 47.834685,297.63804 47.834685,287.00811 23.917343,287.00811 23.917343,297.63804 0,297.63804 0,271.94904 10.62993,271.94904 10.62993,246.26004 0,246.26004 0,228.54349 10.62993,228.54349 10.62993,210.82694 0,210.82694 0,193.11039 10.62993,193.11039 10.62993,175.39384 0,175.39384 0,157.67729 10.62993,157.67729 10.62993,139.96074 0,139.96074 0,122.24419 10.62993,122.24419 10.62993,104.52764 0,104.52764 0,86.811095 10.62993,86.811095 10.62993,69.094545 0,69.094545 0,51.377995 10.62993,51.377995 10.62993,25.688997 0,25.688997 0,0 23.917343,0 23.917343,10.62993 47.834685,10.62993 47.834685,0 65.551235,0 65.551235,10.62993 83.267785,10.62993 83.267785,0 100.98433,0 100.98433,10.62993 118.70088,10.62993 118.70088,0 136.41743,0 136.41743,10.62993 160.33478,10.62993 160.33478,0 184.25212,0 184.25212,25.688997 173.62219,25.688997 "
       id="polygon3556" />
  </g>
  <g
     transform="translate(204.76314,18.224011)"
     id="g3558">
    <polygon
       style="fill:none;stroke:#000000;stroke-width:0.90000075"
       points="184.25212,25.688997 173.62219,25.688997 173.62219,51.377995 184.25212,51.377995 184.25212,69.094545 173.62219,69.094545 173.62219,86.811095 184.25212,86.811095 184.25212,104.52764 173.62219,104.52764 173.62219,122.24419 184.25212,122.24419 184.25212,139.96074 173.62219,139.96074 173.62219,157.67729 184.25212,157.67729 184.25212,175.39384 173.62219,175.39384 173.62219,193.11039 184.25212,193.11039 184.25212,210.82694 173.62219,210.82694 173.62219,228.54349 184.25212,228.54349 184.25212,246.26004 173.62219,246.26004 173.62219,271.94904 184.25212,271.94904 184.25212,297.63804 160.33478,297.63804 160.33478,287.00811 136.41743,287.00811 136.41743,297.63804 118.70088,297.63804 118.70088,287.00811 100.98433,287.00811 100.98433,297.63804 83.267785,297.63804 83.267785,287.00811 65.551235,287.00811 65.551235,297.63804 47.834685,297.63804 47.834685,287.00811 23.917343,287.00811 23.917343,297.63804 0,297.63804 0,271.94904 10.62993,271.94904 10.62993,246.26004 0,246.26004 0,228.54349 10.62993,228.54349 10.62993,210.82694 0,210.82694 0,193.11039 10.62993,193.11039 10.62993,175.39384 0,175.39384 0,157.67729 10.62993,157.67729 10.62993,139.96074 0,139.96074 0,122.24419 10.62993,122.24419 10.62993,104.52764 0,104.52764 0,86.811095 10.62993,86.811095 10.62993,69.094545 0,69.094545 0,51.377995 10.62993,51.377995 10.62993,25.688997 0,25.688997 0,0 23.917343,0 23.917343,10.62993 47.834685,10.62993 47.834685,0 65.551235,0 65.551235,10.62993 83.267785,10.62993 83.267785,0 100.98433,0 100.98433,10.62993 118.70088,10.62993 118.70088,0 136.41743,0 136.41743,10.62993 160.33478,10.62993 160.33478,0 184.25212,0 "
       id="polygon3560" />
  </g>
  <g
     transform="translate(389.01526,18.224011)"
     id="g3562">
    <polygon
       style="fill:none;stroke:#000000;stroke-width:0.90000075"
       points="173.62219,25.688997 184.25212,25.688997 184.25212,51.377995 173.62219,51.377995 173.62219,69.094545 184.25212,69.094545 184.25212,86.811095 173.62219,86.811095 173.62219,104.52764 184.25212,104.52764 184.25212,122.24419 173.62219,122.24419 173.62219,139.96074 184.25212,139.96074 184.25212,157.67729 173.62219,157.67729 173.62219,175.39384 184.25212,175.39384 184.25212,193.11039 173.62219,193.11039 173.62219,210.82694 184.25212,210.82694 184.25212,228.54349 173.62219,228.54349 173.62219,246.26004 184.25212,246.26004 184.25212,271.94904 173.62219,271.94904 173.62219,297.63804 160.33478,297.63804 160.33478,287.00811 136.41743,287.00811 136.41743,297.63804 118.70088,297.63804 118.70088,287.00811 100.98433,287.00811 100.98433,297.63804 83.267785,297.63804 83.267785,287.00811 65.551235,287.00811 65.551235,297.63804 47.834685,297.63804 47.834685,287.00811 23.917343,287.00811 23.917343,297.63804 10.62993,297.63804 10.62993,271.94904 0,271.94904 0,246.26004 10.62993,246.26004 10.62993,228.54349 0,228.54349 0,210.82694 10.62993,210.82694 10.62993,193.11039 0,193.11039 0,175.39384 10.62993,175.39384 10.62993,157.67729 0,157.67729 0,139.96074 10.62993,139.96074 10.62993,122.24419 0,122.24419 0,104.52764 10.62993,104.52764 10.62993,86.811095 0,86.811095 0,69.094545 10.62993,69.094545 10.62993,51.377995 0,51.377995 0,25.688997 10.62993,25.688997 10.62993,0 23.917343,0 23.917343,10.62993 47.834685,10.62993 47.834685,0 65.551235,0 65.551235,10.62993 83.267785,10.62993 83.267785,0 100.98433,0 100.98433,10.62993 118.70088,10.62993 118.70088,0 136.41743,0 136.41743,10.62993 160.33478,10.62993 160.33478,0 173.62219,0 "
       id="polygon3564" />
  </g>
  <g
     transform="translate(389.01526,315.86205)"
     id="g3566">
    <polygon
       style="fill:none;stroke:#000000;stroke-width:0.90000075"
       points="173.62219,25.688997 184.25212,25.688997 184.25212,51.377995 173.62219,51.377995 173.62219,69.094545 184.25212,69.094545 184.25212,86.811095 173.62219,86.811095 173.62219,104.52764 184.25212,104.52764 184.25212,122.24419 173.62219,122.24419 173.62219,139.96074 184.25212,139.96074 184.25212,157.67729 173.62219,157.67729 173.62219,175.39384 184.25212,175.39384 184.25212,193.11039 173.62219,193.11039 173.62219,210.82694 184.25212,210.82694 184.25212,228.54349 173.62219,228.54349 173.62219,246.26004 184.25212,246.26004 184.25212,271.94904 173.62219,271.94904 173.62219,297.63804 160.33478,297.63804 160.33478,287.00811 136.41743,287.00811 136.41743,297.63804 118.70088,297.63804 118.70088,287.00811 100.98433,287.00811 100.98433,297.63804 83.267785,297.63804 83.267785,287.00811 65.551235,287.00811 65.551235,297.63804 47.834685,297.63804 47.834685,287.00811 23.917343,287.00811 23.917343,297.63804 10.62993,297.63804 10.62993,271.94904 0,271.94904 0,246.26004 10.62993,246.26004 10.62993,228.54349 0,228.54349 0,210.82694 10.62993,210.82694 10.62993,193.11039 0,193.11039 0,175.39384 10.62993,175.39384 10.62993,157.67729 0,157.67729 0,139.96074 10.62993,139.96074 10.62993,122.24419 0,122.24419 0,104.52764 10.62993,104.52764 10.62993,86.811095 0,86.811095 0,69.094545 10.62993,69.094545 10.62993,51.377995 0,51.377995 0,25.688997 10.62993,25.688997 10.62993,0 23.917343,0 23.917343,10.62993 47.834685,10.62993 47.834685,0 65.551235,0 65.551235,10.62993 83.267785,10.62993 83.267785,0 100.98433,0 100.98433,10.62993 118.70088,10.62993 118.70088,0 136.41743,0 136.41743,10.62993 160.33478,10.62993 160.33478,0 173.62219,0 "
       id="polygon3568" />
  </g>
  <g
     transform="translate(20.511015,315.86205)"
     id="g3570">
    <polygon
       style="fill:none;stroke:#000000;stroke-width:0.90000075"
       points="173.62219,23.917343 184.25212,23.917343 184.25212,47.834685 173.62219,47.834685 173.62219,65.551235 184.25212,65.551235 184.25212,83.267785 173.62219,83.267785 173.62219,100.98433 184.25212,100.98433 184.25212,118.70088 173.62219,118.70088 173.62219,136.41743 184.25212,136.41743 184.25212,160.33478 173.62219,160.33478 173.62219,173.62219 160.33478,173.62219 160.33478,184.25212 136.41743,184.25212 136.41743,173.62219 118.70088,173.62219 118.70088,184.25212 100.98433,184.25212 100.98433,173.62219 83.267785,173.62219 83.267785,184.25212 65.551235,184.25212 65.551235,173.62219 47.834685,173.62219 47.834685,184.25212 23.917343,184.25212 23.917343,173.62219 10.62993,173.62219 10.62993,160.33478 0,160.33478 0,136.41743 10.62993,136.41743 10.62993,118.70088 0,118.70088 0,100.98433 10.62993,100.98433 10.62993,83.267785 0,83.267785 0,65.551235 10.62993,65.551235 10.62993,47.834685 0,47.834685 0,23.917343 10.62993,23.917343 10.62993,10.62993 23.917343,10.62993 23.917343,0 47.834685,0 47.834685,10.62993 65.551235,10.62993 65.551235,0 83.267785,0 83.267785,10.62993 100.98433,10.62993 100.98433,0 118.70088,0 118.70088,10.62993 136.41743,10.62993 136.41743,0 160.33478,0 160.33478,10.62993 173.62219,10.62993 "
       id="polygon3572" />
    <circle
       cx="92.12606"
       cy="92.12606"
       r="41.633892"
       style="fill:none;stroke:#000000;stroke-width:0.90000075"
       id="circle3574" />
  </g>
  <g
     transform="translate(204.76314,315.86205)"
     id="g3576">
    <polygon
       style="fill:none;stroke:#000000;stroke-width:0.90000075"
       points="173.62219,23.917343 184.25212,23.917343 184.25212,47.834685 173.62219,47.834685 173.62219,65.551235 184.25212,65.551235 184.25212,83.267785 173.62219,83.267785 173.62219,100.98433 184.25212,100.98433 184.25212,118.70088 173.62219,118.70088 173.62219,136.41743 184.25212,136.41743 184.25212,160.33478 173.62219,160.33478 173.62219,173.62219 160.33478,173.62219 160.33478,184.25212 136.41743,184.25212 136.41743,173.62219 118.70088,173.62219 118.70088,184.25212 100.98433,184.25212 100.98433,173.62219 83.267785,173.62219 83.267785,184.25212 65.551235,184.25212 65.551235,173.62219 47.834685,173.62219 47.834685,184.25212 23.917343,184.25212 23.917343,173.62219 10.62993,173.62219 10.62993,160.33478 0,160.33478 0,136.41743 10.62993,136.41743 10.62993,118.70088 0,118.70088 0,100.98433 10.62993,100.98433 10.62993,83.267785 0,83.267785 0,65.551235 10.62993,65.551235 10.62993,47.834685 0,47.834685 0,23.917343 10.62993,23.917343 10.62993,10.62993 23.917343,10.62993 23.917343,0 47.834685,0 47.834685,10.62993 65.551235,10.62993 65.551235,0 83.267785,0 83.267785,10.62993 100.98433,10.62993 100.98433,0 118.70088,0 118.70088,10.62993 136.41743,10.62993 136.41743,0 160.33478,0 160.33478,10.62993 173.62219,10.62993 "
       id="polygon3578" />
  </g>
  <rect
     style="fill:none;fill-rule:evenodd;stroke:#000000;stroke-width:0.94796562px;stroke-linecap:butt;stroke-linejoin:miter;stroke-opacity:1"
     id="rect3605"
     width="69.918243"
     height="9.6819649"
     x="77.427956"
     y="212.64145" />
  <rect
     y="212.64145"
     x="261.93008"
     height="9.6819649"
     width="69.918243"
     id="rect4420"
     style="fill:none;fill-rule:evenodd;stroke:#000000;stroke-width:0.94796562px;stroke-linecap:butt;stroke-linejoin:miter;stroke-opacity:1" />
  <rect
     style="fill:none;fill-rule:evenodd;stroke:#000000;stroke-width:0.94796562px;stroke-linecap:butt;stroke-linejoin:miter;stroke-opacity:1"
     id="rect4422"
     width="69.918236"
     height="9.6819649"
     x="446.18219"
     y="212.64145" />
  <rect
     style="fill:none"
     id="rect4432"
     width="184.50017"
     height="61.500053"
     x="20.000017"
     y="566.41779" />
  <path
     style="fill:none;stroke:#000000;stroke-width:0.96558064;stroke-miterlimit:4;stroke-dasharray:none;stroke-opacity:1"
     d="M 21.326172 530.18945 L 21.326172 600.0918 L 77.298828 600.0918 L 77.298828 655.0625 L 147.11914 655.0625 L 147.11914 600.0918 L 204.61328 600.0918 L 204.61328 530.18945 L 21.326172 530.18945 z "
     id="rect4434" />
</svg>
