<?xml version="1.0" encoding="UTF-8" standalone="no"?>
<svg
   xmlns:dc="http://purl.org/dc/elements/1.1/"
   xmlns:cc="http://creativecommons.org/ns#"
   xmlns:rdf="http://www.w3.org/1999/02/22-rdf-syntax-ns#"
   xmlns:svg="http://www.w3.org/2000/svg"
   xmlns="http://www.w3.org/2000/svg"
   xmlns:sodipodi="http://sodipodi.sourceforge.net/DTD/sodipodi-0.dtd"
   xmlns:inkscape="http://www.inkscape.org/namespaces/inkscape"
   version="1.1"
   width="1220mm"
   height="610mm"
   viewBox="0 0 4322.8383 2161.4192"
   id="svg2"
   inkscape:version="0.91 r13725"
   sodipodi:docname="caseplans.svg">
  <metadata
     id="metadata34">
    <rdf:RDF>
      <cc:Work
         rdf:about="">
        <dc:format>image/svg+xml</dc:format>
        <dc:type
           rdf:resource="http://purl.org/dc/dcmitype/StillImage" />
        <dc:title></dc:title>
      </cc:Work>
    </rdf:RDF>
  </metadata>
  <defs
     id="defs32" />
  <sodipodi:namedview
     pagecolor="#ffffff"
     bordercolor="#666666"
     borderopacity="1"
     objecttolerance="10"
     gridtolerance="10"
     guidetolerance="10"
     inkscape:pageopacity="0"
     inkscape:pageshadow="2"
     inkscape:window-width="2193"
     inkscape:window-height="2108"
     id="namedview30"
     showgrid="false"
     width="1220mm"
     inkscape:zoom="1.2"
     inkscape:cx="604.82684"
     inkscape:cy="1564.5184"
     inkscape:window-x="0"
     inkscape:window-y="24"
     inkscape:window-maximized="0"
     inkscape:current-layer="svg2" />
  <!-- Front-->
  <g
     transform="translate(25.833374,28.040768)"
     id="g4">
    <polygon
       style="fill:none;stroke:#000000;stroke-width:0.90000075"
       points="141.7324,69.094545 131.10247,69.094545 131.10247,86.811095 141.7324,86.811095 141.7324,104.52764 131.10247,104.52764 131.10247,122.24419 141.7324,122.24419 141.7324,139.96074 131.10247,139.96074 131.10247,157.67729 141.7324,157.67729 141.7324,175.39384 131.10247,175.39384 131.10247,201.08284 141.7324,201.08284 141.7324,226.77184 119.58671,226.77184 119.58671,216.14191 97.441025,216.14191 97.441025,226.77184 79.724475,226.77184 79.724475,216.14191 62.007925,216.14191 62.007925,226.77184 44.291375,226.77184 44.291375,216.14191 22.145688,216.14191 22.145688,226.77184 0,226.77184 0,201.08284 10.62993,201.08284 10.62993,175.39384 0,175.39384 0,157.67729 10.62993,157.67729 10.62993,139.96074 0,139.96074 0,122.24419 10.62993,122.24419 10.62993,104.52764 0,104.52764 0,86.811095 10.62993,86.811095 10.62993,69.094545 0,69.094545 0,51.377995 10.62993,51.377995 10.62993,25.688997 0,25.688997 0,0 22.145688,0 22.145688,10.62993 44.291375,10.62993 44.291375,0 62.007925,0 62.007925,10.62993 79.724475,10.62993 79.724475,0 97.441025,0 97.441025,10.62993 119.58671,10.62993 119.58671,0 141.7324,0 141.7324,25.688997 131.10247,25.688997 131.10247,51.377995 141.7324,51.377995 "
       id="polygon6" />
  </g>
  <!-- Back-->
  <g
     transform="translate(167.56585,28.040768)"
     id="g8">
    <polygon
       style="fill:none;stroke:#000000;stroke-width:0.90000075"
       points="141.7324,69.094545 131.10247,69.094545 131.10247,86.811095 141.7324,86.811095 141.7324,104.52764 131.10247,104.52764 131.10247,122.24419 141.7324,122.24419 141.7324,139.96074 131.10247,139.96074 131.10247,157.67729 141.7324,157.67729 141.7324,175.39384 131.10247,175.39384 131.10247,201.08284 141.7324,201.08284 141.7324,226.77184 119.58671,226.77184 119.58671,216.14191 97.441025,216.14191 97.441025,226.77184 79.724475,226.77184 79.724475,216.14191 62.007925,216.14191 62.007925,226.77184 44.291375,226.77184 44.291375,216.14191 22.145688,216.14191 22.145688,226.77184 0,226.77184 0,201.08284 10.62993,201.08284 10.62993,175.39384 0,175.39384 0,157.67729 10.62993,157.67729 10.62993,139.96074 0,139.96074 0,122.24419 10.62993,122.24419 10.62993,104.52764 0,104.52764 0,86.811095 10.62993,86.811095 10.62993,69.094545 0,69.094545 0,51.377995 10.62993,51.377995 10.62993,25.688997 0,25.688997 0,0 22.145688,0 22.145688,10.62993 44.291375,10.62993 44.291375,0 62.007925,0 62.007925,10.62993 79.724475,10.62993 79.724475,0 97.441025,0 97.441025,10.62993 119.58671,10.62993 119.58671,0 141.7324,0 141.7324,25.688997 131.10247,25.688997 131.10247,51.377995 141.7324,51.377995 "
       id="polygon10" />
  </g>
  <!-- Left-->
  <g
     transform="translate(309.29825,28.040768)"
     id="g12">
    <polygon
       style="fill:none;stroke:#000000;stroke-width:0.90000075"
       points="131.10247,69.094545 141.7324,69.094545 141.7324,86.811095 131.10247,86.811095 131.10247,104.52764 141.7324,104.52764 141.7324,122.24419 131.10247,122.24419 131.10247,139.96074 141.7324,139.96074 141.7324,157.67729 131.10247,157.67729 131.10247,175.39384 141.7324,175.39384 141.7324,201.08284 131.10247,201.08284 131.10247,226.77184 119.58671,226.77184 119.58671,216.14191 97.441025,216.14191 97.441025,226.77184 79.724475,226.77184 79.724475,216.14191 62.007925,216.14191 62.007925,226.77184 44.291375,226.77184 44.291375,216.14191 22.145688,216.14191 22.145688,226.77184 10.62993,226.77184 10.62993,201.08284 0,201.08284 0,175.39384 10.62993,175.39384 10.62993,157.67729 0,157.67729 0,139.96074 10.62993,139.96074 10.62993,122.24419 0,122.24419 0,104.52764 10.62993,104.52764 10.62993,86.811095 0,86.811095 0,69.094545 10.62993,69.094545 10.62993,51.377995 0,51.377995 0,25.688997 10.62993,25.688997 10.62993,0 22.145688,0 22.145688,10.62993 44.291375,10.62993 44.291375,0 62.007925,0 62.007925,10.62993 79.724475,10.62993 79.724475,0 97.441025,0 97.441025,10.62993 119.58671,10.62993 119.58671,0 131.10247,0 131.10247,25.688997 141.7324,25.688997 141.7324,51.377995 131.10247,51.377995 "
       id="polygon14" />
  </g>
  <!-- Right-->
  <g
     transform="translate(309.29825,254.81274)"
     id="g16">
    <polygon
       style="fill:none;stroke:#000000;stroke-width:0.90000075"
       points="131.10247,69.094545 141.7324,69.094545 141.7324,86.811095 131.10247,86.811095 131.10247,104.52764 141.7324,104.52764 141.7324,122.24419 131.10247,122.24419 131.10247,139.96074 141.7324,139.96074 141.7324,157.67729 131.10247,157.67729 131.10247,175.39384 141.7324,175.39384 141.7324,201.08284 131.10247,201.08284 131.10247,226.77184 119.58671,226.77184 119.58671,216.14191 97.441025,216.14191 97.441025,226.77184 79.724475,226.77184 79.724475,216.14191 62.007925,216.14191 62.007925,226.77184 44.291375,226.77184 44.291375,216.14191 22.145688,216.14191 22.145688,226.77184 10.62993,226.77184 10.62993,201.08284 0,201.08284 0,175.39384 10.62993,175.39384 10.62993,157.67729 0,157.67729 0,139.96074 10.62993,139.96074 10.62993,122.24419 0,122.24419 0,104.52764 10.62993,104.52764 10.62993,86.811095 0,86.811095 0,69.094545 10.62993,69.094545 10.62993,51.377995 0,51.377995 0,25.688997 10.62993,25.688997 10.62993,0 22.145688,0 22.145688,10.62993 44.291375,10.62993 44.291375,0 62.007925,0 62.007925,10.62993 79.724475,10.62993 79.724475,0 97.441025,0 97.441025,10.62993 119.58671,10.62993 119.58671,0 131.10247,0 131.10247,25.688997 141.7324,25.688997 141.7324,51.377995 131.10247,51.377995 "
       id="polygon18" />
  </g>
  <!-- Top-->
  <g
     transform="translate(25.833374,254.81274)"
     id="g20">
    <polygon
       style="fill:none;stroke:#000000;stroke-width:0.90000075"
       points="0,22.145688 10.62993,22.145688 10.62993,10.62993 22.145688,10.62993 22.145688,0 44.291375,0 44.291375,10.62993 62.007925,10.62993 62.007925,0 79.724475,0 79.724475,10.62993 97.441025,10.62993 97.441025,0 119.58671,0 119.58671,10.62993 131.10247,10.62993 131.10247,22.145688 141.7324,22.145688 141.7324,44.291375 131.10247,44.291375 131.10247,62.007925 141.7324,62.007925 141.7324,79.724475 131.10247,79.724475 131.10247,97.441025 141.7324,97.441025 141.7324,119.58671 131.10247,119.58671 131.10247,131.10247 119.58671,131.10247 119.58671,141.7324 97.441025,141.7324 97.441025,131.10247 79.724475,131.10247 79.724475,141.7324 62.007925,141.7324 62.007925,131.10247 44.291375,131.10247 44.291375,141.7324 22.145688,141.7324 22.145688,131.10247 10.62993,131.10247 10.62993,119.58671 0,119.58671 0,97.441025 10.62993,97.441025 10.62993,79.724475 0,79.724475 0,62.007925 10.62993,62.007925 10.62993,44.291375 0,44.291375 "
       id="polygon22" />
    <circle
       cx="70.866203"
       cy="70.866203"
       r="53.149651"
       style="fill:none;stroke:#000000;stroke-width:0.90000075"
       id="circle24" />
  </g>
  <!-- Bottom-->
  <g
     transform="translate(167.56585,254.81274)"
     id="g26">
    <polygon
       style="fill:none;stroke:#000000;stroke-width:0.90000075"
       points="0,22.145688 10.62993,22.145688 10.62993,10.62993 22.145688,10.62993 22.145688,0 44.291375,0 44.291375,10.62993 62.007925,10.62993 62.007925,0 79.724475,0 79.724475,10.62993 97.441025,10.62993 97.441025,0 119.58671,0 119.58671,10.62993 131.10247,10.62993 131.10247,22.145688 141.7324,22.145688 141.7324,44.291375 131.10247,44.291375 131.10247,62.007925 141.7324,62.007925 141.7324,79.724475 131.10247,79.724475 131.10247,97.441025 141.7324,97.441025 141.7324,119.58671 131.10247,119.58671 131.10247,131.10247 119.58671,131.10247 119.58671,141.7324 97.441025,141.7324 97.441025,131.10247 79.724475,131.10247 79.724475,141.7324 62.007925,141.7324 62.007925,131.10247 44.291375,131.10247 44.291375,141.7324 22.145688,141.7324 22.145688,131.10247 10.62993,131.10247 10.62993,119.58671 0,119.58671 0,97.441025 10.62993,97.441025 10.62993,79.724475 0,79.724475 0,62.007925 10.62993,62.007925 10.62993,44.291375 0,44.291375 "
       id="polygon28" />
  </g>
  <rect
     style="fill:none;fill-rule:evenodd;stroke:#ff0000;stroke-width:1.00000083;stroke-linecap:butt;stroke-linejoin:miter;stroke-miterlimit:4;stroke-dasharray:none;stroke-opacity:1"
     id="rect3362"
     width="1062.9921"
     height="885.82678"
     x="1.3333398"
     y="2.0839109" />
  <rect
     style="fill:none;stroke:#ff0000;stroke-width:1;stroke-miterlimit:4;stroke-dasharray:none;stroke-opacity:1"
     id="rect4164"
     width="479.16708"
     height="510.00046"
     x="0.83333403"
     y="0.58390105" />
</svg>
