<?xml version="1.0" encoding="UTF-8" standalone="no"?>
<!-- Created with Inkscape (http://www.inkscape.org/) -->

<svg
   xmlns:dc="http://purl.org/dc/elements/1.1/"
   xmlns:cc="http://creativecommons.org/ns#"
   xmlns:rdf="http://www.w3.org/1999/02/22-rdf-syntax-ns#"
   xmlns:svg="http://www.w3.org/2000/svg"
   xmlns="http://www.w3.org/2000/svg"
   xmlns:sodipodi="http://sodipodi.sourceforge.net/DTD/sodipodi-0.dtd"
   xmlns:inkscape="http://www.inkscape.org/namespaces/inkscape"
   width="1220mm"
   height="610mm"
   viewBox="0 0 1220 610"
   version="1.1"
   id="svg8"
   inkscape:version="0.92.3 (2405546, 2018-03-11)"
   sodipodi:docname="rpi.svg">
  <defs
     id="defs2" />
  <sodipodi:namedview
     id="base"
     pagecolor="#ffffff"
     bordercolor="#666666"
     borderopacity="1.0"
     inkscape:pageopacity="0.0"
     inkscape:pageshadow="2"
     inkscape:zoom="5.6568543"
     inkscape:cx="227.49098"
     inkscape:cy="1507.2497"
     inkscape:document-units="mm"
     inkscape:current-layer="layer1"
     showgrid="true"
     inkscape:measure-start="287.244,1555.28"
     inkscape:measure-end="287.244,1528.82"
     showguides="true"
     inkscape:guide-bbox="true"
     inkscape:window-width="3840"
     inkscape:window-height="2136"
     inkscape:window-x="0"
     inkscape:window-y="24"
     inkscape:window-maximized="1">
    <inkscape:grid
       type="xygrid"
       id="grid4518"
       units="mm"
       spacingx="0.50000002"
       spacingy="0.50000002"
       dotted="true" />
    <sodipodi:guide
       position="60.000002,584.00002"
       orientation="0,1"
       id="guide4644"
       inkscape:locked="false" />
    <sodipodi:guide
       position="60.000002,577.00002"
       orientation="0,1"
       id="guide4646"
       inkscape:locked="false" />
    <sodipodi:guide
       position="60.000002,526.00002"
       orientation="0,1"
       id="guide4648"
       inkscape:locked="false" />
    <sodipodi:guide
       position="60.000002,519.00002"
       orientation="0,1"
       id="guide4650"
       inkscape:locked="false" />
    <sodipodi:guide
       position="4.5000004,439.50004"
       orientation="0,1"
       id="guide4679"
       inkscape:locked="false" />
    <sodipodi:guide
       position="5.0000004,439.50004"
       orientation="1,0"
       id="guide4681"
       inkscape:locked="false" />
    <sodipodi:guide
       position="8.5000007,357.00003"
       orientation="0,1"
       id="guide4685"
       inkscape:locked="false" />
    <sodipodi:guide
       position="7.5000006,340.50003"
       orientation="1,0"
       id="guide4687"
       inkscape:locked="false" />
    <sodipodi:guide
       position="58.500005,357.00003"
       orientation="1,0"
       id="guide4689"
       inkscape:locked="false" />
    <sodipodi:guide
       position="7.5000006,415.00003"
       orientation="0,1"
       id="guide4697"
       inkscape:locked="false" />
    <sodipodi:guide
       position="7.5000006,441.50004"
       orientation="0,1"
       id="guide4703"
       inkscape:locked="false" />
    <sodipodi:guide
       position="62.500005,441.00004"
       orientation="1,0"
       id="guide4705"
       inkscape:locked="false" />
    <sodipodi:guide
       position="23.000002,441.50004"
       orientation="1,0"
       id="guide4707"
       inkscape:locked="false" />
    <sodipodi:guide
       position="25.500002,441.50004"
       orientation="1,0"
       id="guide4709"
       inkscape:locked="false" />
    <sodipodi:guide
       position="41.000003,441.50004"
       orientation="1,0"
       id="guide4711"
       inkscape:locked="false" />
    <sodipodi:guide
       position="42.500003,441.50004"
       orientation="1,0"
       id="guide4713"
       inkscape:locked="false" />
    <sodipodi:guide
       position="8.0000006,342.50003"
       orientation="0,1"
       id="guide4715"
       inkscape:locked="false" />
    <sodipodi:guide
       position="41.000003,326.50003"
       orientation="0,1"
       id="guide4717"
       inkscape:locked="false" />
    <sodipodi:guide
       position="42.500003,328.50003"
       orientation="0,1"
       id="guide4723"
       inkscape:locked="false" />
    <sodipodi:guide
       position="61.000005,349.50003"
       orientation="1,0"
       id="guide4727"
       inkscape:locked="false" />
    <sodipodi:guide
       position="7.5000006,347.50003"
       orientation="0,1"
       id="guide4729"
       inkscape:locked="false" />
    <sodipodi:guide
       position="7.5000006,321.50003"
       orientation="0,1"
       id="guide4731"
       inkscape:locked="false" />
    <sodipodi:guide
       position="58.500005,361.00003"
       orientation="0,1"
       id="guide4735"
       inkscape:locked="false" />
    <sodipodi:guide
       position="62.500005,369.00003"
       orientation="0,1"
       id="guide4737"
       inkscape:locked="false" />
    <sodipodi:guide
       position="62.500005,379.00003"
       orientation="0,1"
       id="guide4739"
       inkscape:locked="false" />
    <sodipodi:guide
       position="62.500005,394.00003"
       orientation="0,1"
       id="guide4743"
       inkscape:locked="false" />
    <sodipodi:guide
       position="82.000007,404.50003"
       orientation="0,1"
       id="guide4747"
       inkscape:locked="false" />
    <sodipodi:guide
       position="82.000007,411.50003"
       orientation="0,1"
       id="guide4749"
       inkscape:locked="false" />
    <sodipodi:guide
       position="58.500005,354.50003"
       orientation="0,1"
       id="guide4751"
       inkscape:locked="false" />
    <sodipodi:guide
       position="66.000005,439.50004"
       orientation="1,0"
       id="guide4753"
       inkscape:locked="false" />
    <sodipodi:guide
       position="81.500007,367.50003"
       orientation="1,0"
       id="guide4755"
       inkscape:locked="false" />
    <sodipodi:guide
       position="86.000007,420.00003"
       orientation="1,0"
       id="guide4757"
       inkscape:locked="false" />
    <sodipodi:guide
       position="77.500006,361.00003"
       orientation="1,0"
       id="guide4763"
       inkscape:locked="false" />
    <sodipodi:guide
       position="74.500006,367.00003"
       orientation="1,0"
       id="guide4765"
       inkscape:locked="false" />
  </sodipodi:namedview>
  <metadata
     id="metadata5">
    <rdf:RDF>
      <cc:Work
         rdf:about="">
        <dc:format>image/svg+xml</dc:format>
        <dc:type
           rdf:resource="http://purl.org/dc/dcmitype/StillImage" />
        <dc:title></dc:title>
      </cc:Work>
    </rdf:RDF>
  </metadata>
  <g
     inkscape:label="Layer 1"
     inkscape:groupmode="layer"
     id="layer1"
     transform="translate(0,313)">
    <g
       id="g4634"
       transform="matrix(0.28222198,0,0,0.28222198,-1.3499996,-314.35002)"
       style="stroke:#000000;stroke-opacity:1;fill:none;fill-opacity:1;stroke-width:0.35433102;stroke-miterlimit:4;stroke-dasharray:none">
      <g
         id="g4592"
         transform="translate(22.500018,22.500018)"
         style="stroke:#000000;stroke-opacity:1;fill:none;fill-opacity:1;stroke-width:0.35433102;stroke-miterlimit:4;stroke-dasharray:none">
        <polygon
           id="polygon4590"
           points="10.62993,116.92923 10.62993,58.464615 0,58.464615 0,0 46.948858,0 46.948858,10.62993 93.897715,10.62993 93.897715,0 129.33082,0 129.33082,10.62993 176.27967,10.62993 176.27967,0 223.22853,0 223.22853,58.464615 212.5986,58.464615 212.5986,116.92923 223.22853,116.92923 223.22853,152.36233 212.5986,152.36233 212.5986,187.79543 223.22853,187.79543 223.22853,223.22853 212.5986,223.22853 212.5986,281.69314 223.22853,281.69314 223.22853,340.15776 176.27967,340.15776 176.27967,329.52783 129.33082,329.52783 129.33082,340.15776 93.897715,340.15776 93.897715,329.52783 46.948858,329.52783 46.948858,340.15776 0,340.15776 0,281.69314 10.62993,281.69314 10.62993,223.22853 0,223.22853 0,187.79543 10.62993,187.79543 10.62993,152.36233 0,152.36233 0,116.92923 "
           style="fill:none;stroke:#000000;stroke-width:0.35433102;stroke-opacity:1;fill-opacity:1;stroke-miterlimit:4;stroke-dasharray:none" />
      </g>
      <g
         id="g4596"
         transform="translate(245.72855,22.500018)"
         style="stroke:#000000;stroke-opacity:1;fill:none;fill-opacity:1;stroke-width:0.35433102;stroke-miterlimit:4;stroke-dasharray:none">
        <polygon
           id="polygon4594"
           points="10.62993,116.92923 10.62993,58.464615 0,58.464615 0,0 46.948858,0 46.948858,10.62993 93.897715,10.62993 93.897715,0 129.33082,0 129.33082,10.62993 176.27967,10.62993 176.27967,0 223.22853,0 223.22853,58.464615 212.5986,58.464615 212.5986,116.92923 223.22853,116.92923 223.22853,152.36233 212.5986,152.36233 212.5986,187.79543 223.22853,187.79543 223.22853,223.22853 212.5986,223.22853 212.5986,281.69314 223.22853,281.69314 223.22853,340.15776 176.27967,340.15776 176.27967,329.52783 129.33082,329.52783 129.33082,340.15776 93.897715,340.15776 93.897715,329.52783 46.948858,329.52783 46.948858,340.15776 0,340.15776 0,281.69314 10.62993,281.69314 10.62993,223.22853 0,223.22853 0,187.79543 10.62993,187.79543 10.62993,152.36233 0,152.36233 0,116.92923 "
           style="fill:none;stroke:#000000;stroke-width:0.35433102;stroke-opacity:1;fill-opacity:1;stroke-miterlimit:4;stroke-dasharray:none" />
      </g>
      <g
         id="g4600"
         transform="translate(468.95708,22.500018)"
         style="stroke:#000000;stroke-opacity:1;fill:none;fill-opacity:1;stroke-width:0.35433102;stroke-miterlimit:4;stroke-dasharray:none">
        <polygon
           id="polygon4598"
           points="0,116.92923 0,58.464615 10.62993,58.464615 10.62993,0 46.948858,0 46.948858,10.62993 93.897715,10.62993 93.897715,0 129.33082,0 129.33082,10.62993 176.27967,10.62993 176.27967,0 212.5986,0 212.5986,58.464615 223.22853,58.464615 223.22853,116.92923 212.5986,116.92923 212.5986,152.36233 223.22853,152.36233 223.22853,187.79543 212.5986,187.79543 212.5986,223.22853 223.22853,223.22853 223.22853,281.69314 212.5986,281.69314 212.5986,340.15776 176.27967,340.15776 176.27967,329.52783 129.33082,329.52783 129.33082,340.15776 93.897715,340.15776 93.897715,329.52783 46.948858,329.52783 46.948858,340.15776 10.62993,340.15776 10.62993,281.69314 0,281.69314 0,223.22853 10.62993,223.22853 10.62993,187.79543 0,187.79543 0,152.36233 10.62993,152.36233 10.62993,116.92923 "
           style="fill:none;stroke:#000000;stroke-width:0.35433102;stroke-opacity:1;fill-opacity:1;stroke-miterlimit:4;stroke-dasharray:none" />
      </g>
      <g
         id="g4604"
         transform="translate(468.95708,362.65778)"
         style="stroke:#000000;stroke-opacity:1;fill:none;fill-opacity:1;stroke-width:0.35433102;stroke-miterlimit:4;stroke-dasharray:none">
        <polygon
           id="polygon4602"
           points="0,116.92923 0,58.464615 10.62993,58.464615 10.62993,0 46.948858,0 46.948858,10.62993 93.897715,10.62993 93.897715,0 129.33082,0 129.33082,10.62993 176.27967,10.62993 176.27967,0 212.5986,0 212.5986,58.464615 223.22853,58.464615 223.22853,116.92923 212.5986,116.92923 212.5986,152.36233 223.22853,152.36233 223.22853,187.79543 212.5986,187.79543 212.5986,223.22853 223.22853,223.22853 223.22853,281.69314 212.5986,281.69314 212.5986,340.15776 176.27967,340.15776 176.27967,329.52783 129.33082,329.52783 129.33082,340.15776 93.897715,340.15776 93.897715,329.52783 46.948858,329.52783 46.948858,340.15776 10.62993,340.15776 10.62993,281.69314 0,281.69314 0,223.22853 10.62993,223.22853 10.62993,187.79543 0,187.79543 0,152.36233 10.62993,152.36233 10.62993,116.92923 "
           style="fill:none;stroke:#000000;stroke-width:0.35433102;stroke-opacity:1;fill-opacity:1;stroke-miterlimit:4;stroke-dasharray:none" />
      </g>
      <g
         id="g4608"
         transform="translate(22.500018,362.65778)"
         style="stroke:#000000;stroke-opacity:1;fill:none;fill-opacity:1;stroke-width:0.35433102;stroke-miterlimit:4;stroke-dasharray:none">
        <polygon
           id="polygon4606"
           points="212.5986,93.897715 212.5986,129.33082 223.22853,129.33082 223.22853,176.27967 212.5986,176.27967 212.5986,212.5986 176.27967,212.5986 176.27967,223.22853 129.33082,223.22853 129.33082,212.5986 93.897715,212.5986 93.897715,223.22853 46.948858,223.22853 46.948858,212.5986 10.62993,212.5986 10.62993,176.27967 0,176.27967 0,129.33082 10.62993,129.33082 10.62993,93.897715 0,93.897715 0,46.948858 10.62993,46.948858 10.62993,10.62993 46.948858,10.62993 46.948858,0 93.897715,0 93.897715,10.62993 129.33082,10.62993 129.33082,0 176.27967,0 176.27967,10.62993 212.5986,10.62993 212.5986,46.948858 223.22853,46.948858 223.22853,93.897715 "
           style="fill:none;stroke:#000000;stroke-width:0.35433102;stroke-opacity:1;fill-opacity:1;stroke-miterlimit:4;stroke-dasharray:none" />
      </g>
      <g
         id="g4612"
         transform="translate(245.72855,362.65778)"
         style="stroke:#000000;stroke-opacity:1;fill:none;fill-opacity:1;stroke-width:0.35433102;stroke-miterlimit:4;stroke-dasharray:none">
        <polygon
           id="polygon4610"
           points="212.5986,93.897715 212.5986,129.33082 223.22853,129.33082 223.22853,176.27967 212.5986,176.27967 212.5986,212.5986 176.27967,212.5986 176.27967,223.22853 129.33082,223.22853 129.33082,212.5986 93.897715,212.5986 93.897715,223.22853 46.948858,223.22853 46.948858,212.5986 10.62993,212.5986 10.62993,176.27967 0,176.27967 0,129.33082 10.62993,129.33082 10.62993,93.897715 0,93.897715 0,46.948858 10.62993,46.948858 10.62993,10.62993 46.948858,10.62993 46.948858,0 93.897715,0 93.897715,10.62993 129.33082,10.62993 129.33082,0 176.27967,0 176.27967,10.62993 212.5986,10.62993 212.5986,46.948858 223.22853,46.948858 223.22853,93.897715 "
           style="fill:none;stroke:#000000;stroke-width:0.35433102;stroke-opacity:1;fill-opacity:1;stroke-miterlimit:4;stroke-dasharray:none" />
      </g>
    </g>
    <rect
       style="fill:none;stroke:#000000;stroke-width:0.1;stroke-miterlimit:4;stroke-dasharray:none;stroke-opacity:1;fill-opacity:1"
       id="rect4652"
       width="3"
       height="6.9999995"
       x="11"
       y="-229.00003"
       rx="1.5"
       ry="1.5" />
    <rect
       style="fill:none;stroke:#000000;stroke-width:0.1;stroke-miterlimit:4;stroke-dasharray:none;stroke-opacity:1;fill-opacity:1"
       id="rect4654"
       width="3"
       height="6.9999995"
       x="60"
       y="-229.00003"
       rx="1.4999996"
       ry="1.4999996" />
    <rect
       style="fill:none;stroke:#000000;stroke-width:0.1;stroke-miterlimit:4;stroke-dasharray:none;stroke-opacity:1;fill-opacity:1"
       id="rect4656"
       width="3.0000002"
       height="7.0000033"
       x="11"
       y="-287.00003"
       rx="1.4999996"
       ry="1.4999996" />
    <rect
       style="fill:none;stroke:#000000;stroke-width:0.1;stroke-miterlimit:4;stroke-dasharray:none;stroke-opacity:1;fill-opacity:1"
       id="rect4658"
       width="3.0000007"
       height="7"
       x="60"
       y="-287.00003"
       rx="1.4999996"
       ry="1.4999996" />
    <rect
       style="fill:none;fill-opacity:1;stroke:#000000;stroke-width:0.1;stroke-miterlimit:4;stroke-dasharray:none;stroke-opacity:1"
       id="rect4683"
       width="56"
       height="85"
       x="5"
       y="-142.50005"
       rx="2.5"
       ry="2.5" />
    <ellipse
       style="fill:none;fill-opacity:1;stroke:#000000;stroke-width:0.1;stroke-miterlimit:4;stroke-dasharray:none;stroke-opacity:1"
       id="path4691"
       cx="8.75"
       cy="-61.250042"
       rx="1.25"
       ry="1.2499993" />
    <ellipse
       ry="1.2499993"
       rx="1.25"
       cy="-61.250042"
       cx="8.75"
       id="ellipse4693"
       style="fill:none;fill-opacity:1;stroke:#000000;stroke-width:0.1;stroke-miterlimit:4;stroke-dasharray:none;stroke-opacity:1" />
    <ellipse
       style="fill:none;fill-opacity:1;stroke:#000000;stroke-width:0.1;stroke-miterlimit:4;stroke-dasharray:none;stroke-opacity:1"
       id="ellipse4695"
       cx="57.199505"
       cy="-61.250042"
       rx="1.25"
       ry="1.2499993" />
    <ellipse
       ry="1.2499993"
       rx="1.25"
       cy="-119.31805"
       cx="57.199505"
       id="ellipse4699"
       style="fill:none;fill-opacity:1;stroke:#000000;stroke-width:0.1;stroke-miterlimit:4;stroke-dasharray:none;stroke-opacity:1" />
    <ellipse
       style="fill:none;fill-opacity:1;stroke:#000000;stroke-width:0.1;stroke-miterlimit:4;stroke-dasharray:none;stroke-opacity:1"
       id="ellipse4701"
       cx="8.796772"
       cy="-119.33273"
       rx="1.25"
       ry="1.2499993" />
    <rect
       style="fill:none;fill-opacity:1;stroke:#000000;stroke-width:0.1;stroke-miterlimit:4;stroke-dasharray:none;stroke-opacity:1"
       id="rect4719"
       width="15.500001"
       height="16"
       x="7.5000005"
       y="-45.500038" />
    <rect
       style="fill:none;fill-opacity:1;stroke:#000000;stroke-width:0.1;stroke-miterlimit:4;stroke-dasharray:none;stroke-opacity:1"
       id="rect4721"
       width="15.500001"
       height="16"
       x="25.500002"
       y="-45.500038" />
    <rect
       style="fill:none;fill-opacity:1;stroke:#000000;stroke-width:0.1;stroke-miterlimit:4;stroke-dasharray:none;stroke-opacity:1"
       id="rect4725"
       width="16.000002"
       height="14"
       x="42.5"
       y="-45.500038" />
    <rect
       style="fill:none;fill-opacity:1;stroke:#000000;stroke-width:0.1;stroke-miterlimit:4;stroke-dasharray:none;stroke-opacity:1"
       id="rect4733"
       width="56"
       height="25.999998"
       x="5"
       y="-50.500038" />
    <rect
       style="fill:none;fill-opacity:1;stroke:#000000;stroke-width:0.1;stroke-miterlimit:4;stroke-dasharray:none;stroke-opacity:1"
       id="rect4759"
       width="20"
       height="85"
       x="66"
       y="-142.50005" />
    <rect
       style="fill:none;fill-opacity:1;stroke:#000000;stroke-width:0.1;stroke-miterlimit:4;stroke-dasharray:none;stroke-opacity:1"
       id="rect4767"
       width="4.0000005"
       height="8.000001"
       x="77.5"
       y="-72.000046" />
    <rect
       style="fill:none;fill-opacity:1;stroke:#000000;stroke-width:0.1;stroke-miterlimit:4;stroke-dasharray:none;stroke-opacity:1"
       id="rect4769"
       width="7.0000005"
       height="15.000001"
       x="74.500008"
       y="-97.000038" />
    <ellipse
       style="fill:none;fill-opacity:1;stroke:#000000;stroke-width:0.1;stroke-miterlimit:4;stroke-dasharray:none;stroke-opacity:1"
       id="path4771"
       cx="78"
       cy="-111.00005"
       rx="3.5000002"
       ry="3.5" />
  </g>
</svg>
