<?xml version="1.0" encoding="UTF-8" standalone="no"?>
<!-- Created with Inkscape (http://www.inkscape.org/) -->

<svg
   xmlns:dc="http://purl.org/dc/elements/1.1/"
   xmlns:cc="http://creativecommons.org/ns#"
   xmlns:rdf="http://www.w3.org/1999/02/22-rdf-syntax-ns#"
   xmlns:svg="http://www.w3.org/2000/svg"
   xmlns="http://www.w3.org/2000/svg"
   xmlns:sodipodi="http://sodipodi.sourceforge.net/DTD/sodipodi-0.dtd"
   xmlns:inkscape="http://www.inkscape.org/namespaces/inkscape"
   width="1220mm"
   height="610mm"
   viewBox="0 0 1220 610"
   version="1.1"
   id="svg8"
   inkscape:version="0.92.3 (2405546, 2018-03-11)"
   sodipodi:docname="rpi.svg">
  <defs
     id="defs2" />
  <sodipodi:namedview
     id="base"
     pagecolor="#ffffff"
     bordercolor="#666666"
     borderopacity="1.0"
     inkscape:pageopacity="0.0"
     inkscape:pageshadow="2"
     inkscape:zoom="2"
     inkscape:cx="476.40025"
     inkscape:cy="1905.9959"
     inkscape:document-units="mm"
     inkscape:current-layer="g1029"
     showgrid="true"
     inkscape:measure-start="463.25,1998.24"
     inkscape:measure-end="463.5,1979.25"
     showguides="true"
     inkscape:guide-bbox="true"
     inkscape:window-width="3840"
     inkscape:window-height="2136"
     inkscape:window-x="0"
     inkscape:window-y="24"
     inkscape:window-maximized="1"
     inkscape:snap-path-clip="false"
     objecttolerance="1"
     gridtolerance="1">
    <inkscape:grid
       type="xygrid"
       id="grid4518"
       units="mm"
       spacingx="0.50000002"
       spacingy="0.50000002"
       dotted="true"
       snapvisiblegridlinesonly="false" />
    <sodipodi:guide
       position="10.000001,544.9094"
       orientation="0,1"
       id="guide2157"
       inkscape:locked="false" />
    <sodipodi:guide
       position="17.660938,452.50004"
       orientation="0,1"
       id="guide1031"
       inkscape:locked="false" />
    <sodipodi:guide
       position="15.279688,483.7245"
       orientation="1,0"
       id="guide1033"
       inkscape:locked="false" />
    <sodipodi:guide
       position="100.27709,469.76773"
       orientation="1,0"
       id="guide1035"
       inkscape:locked="false" />
    <sodipodi:guide
       position="15.279688,480.00004"
       orientation="0,1"
       id="guide1037"
       inkscape:locked="false" />
    <sodipodi:guide
       position="22.754168,476.1508"
       orientation="1,0"
       id="guide4750"
       inkscape:locked="false" />
    <sodipodi:guide
       position="19.579167,472.08283"
       orientation="0,1"
       id="guide4752"
       inkscape:locked="false" />
    <sodipodi:guide
       position="41.275002,467.08882"
       orientation="0.25881905,0.96592583"
       id="guide4756"
       inkscape:locked="false"
       inkscape:label=""
       inkscape:color="rgb(0,0,255)" />
    <sodipodi:guide
       position="22.754168,480.00004"
       orientation="0.25881905,0.96592583"
       id="guide4758"
       inkscape:locked="false"
       inkscape:label=""
       inkscape:color="rgb(0,0,255)" />
    <sodipodi:guide
       position="109.20678,497.50004"
       orientation="0,1"
       id="guide919"
       inkscape:locked="false" />
    <sodipodi:guide
       position="107.50001,500.00004"
       orientation="0,1"
       id="guide921"
       inkscape:locked="false" />
    <sodipodi:guide
       position="113.30782,492.50004"
       orientation="0,1"
       id="guide923"
       inkscape:locked="false" />
    <sodipodi:guide
       position="113.2418,528.70041"
       orientation="0,1"
       id="guide925"
       inkscape:locked="false" />
    <sodipodi:guide
       position="123.00001,523.80888"
       orientation="0,1"
       id="guide927"
       inkscape:locked="false" />
  </sodipodi:namedview>
  <metadata
     id="metadata5">
    <rdf:RDF>
      <cc:Work
         rdf:about="">
        <dc:format>image/svg+xml</dc:format>
        <dc:type
           rdf:resource="http://purl.org/dc/dcmitype/StillImage" />
        <dc:title />
      </cc:Work>
    </rdf:RDF>
  </metadata>
  <g
     inkscape:label="Layer 1"
     inkscape:groupmode="layer"
     id="layer1"
     transform="translate(0,313)"
     style="display:inline">
    <g
       id="g4634"
       transform="matrix(0.28222198,0,0,0.28222198,336.25988,-314.35002)"
       style="fill:none;fill-opacity:1;stroke:#800000;stroke-width:0.35433102;stroke-miterlimit:4;stroke-dasharray:none;stroke-opacity:1">
      <g
         id="g4592"
         transform="translate(22.500018,22.500018)"
         style="fill:none;fill-opacity:1;stroke:#800000;stroke-width:0.35433102;stroke-miterlimit:4;stroke-dasharray:none;stroke-opacity:1">
        <polygon
           id="polygon4590"
           points="93.897715,340.15776 93.897715,329.52783 46.948858,329.52783 46.948858,340.15776 0,340.15776 0,281.69314 10.62993,281.69314 10.62993,223.22853 0,223.22853 0,187.79543 10.62993,187.79543 10.62993,152.36233 0,152.36233 0,116.92923 10.62993,116.92923 10.62993,58.464615 0,58.464615 0,0 46.948858,0 46.948858,10.62993 93.897715,10.62993 93.897715,0 129.33082,0 129.33082,10.62993 176.27967,10.62993 176.27967,0 223.22853,0 223.22853,58.464615 212.5986,58.464615 212.5986,116.92923 223.22853,116.92923 223.22853,152.36233 212.5986,152.36233 212.5986,187.79543 223.22853,187.79543 223.22853,223.22853 212.5986,223.22853 212.5986,281.69314 223.22853,281.69314 223.22853,340.15776 176.27967,340.15776 176.27967,329.52783 129.33082,329.52783 129.33082,340.15776 "
           style="fill:none;fill-opacity:1;stroke:#800000;stroke-width:0.35433102;stroke-miterlimit:4;stroke-dasharray:none;stroke-opacity:1" />
      </g>
      <g
         id="g4596"
         transform="translate(245.72855,22.500018)"
         style="fill:none;fill-opacity:1;stroke:#800000;stroke-width:0.35433102;stroke-miterlimit:4;stroke-dasharray:none;stroke-opacity:1">
        <polygon
           id="polygon4594"
           points="93.897715,340.15776 93.897715,329.52783 46.948858,329.52783 46.948858,340.15776 0,340.15776 0,281.69314 10.62993,281.69314 10.62993,223.22853 0,223.22853 0,187.79543 10.62993,187.79543 10.62993,152.36233 0,152.36233 0,116.92923 10.62993,116.92923 10.62993,58.464615 0,58.464615 0,0 46.948858,0 46.948858,10.62993 93.897715,10.62993 93.897715,0 129.33082,0 129.33082,10.62993 176.27967,10.62993 176.27967,0 223.22853,0 223.22853,58.464615 212.5986,58.464615 212.5986,116.92923 223.22853,116.92923 223.22853,152.36233 212.5986,152.36233 212.5986,187.79543 223.22853,187.79543 223.22853,223.22853 212.5986,223.22853 212.5986,281.69314 223.22853,281.69314 223.22853,340.15776 176.27967,340.15776 176.27967,329.52783 129.33082,329.52783 129.33082,340.15776 "
           style="fill:none;fill-opacity:1;stroke:#800000;stroke-width:0.35433102;stroke-miterlimit:4;stroke-dasharray:none;stroke-opacity:1" />
      </g>
      <g
         id="g4600"
         transform="translate(468.95708,22.500018)"
         style="fill:none;fill-opacity:1;stroke:#800000;stroke-width:0.35433102;stroke-miterlimit:4;stroke-dasharray:none;stroke-opacity:1">
        <polygon
           id="polygon4598"
           points="93.897715,340.15776 93.897715,329.52783 46.948858,329.52783 46.948858,340.15776 10.62993,340.15776 10.62993,281.69314 0,281.69314 0,223.22853 10.62993,223.22853 10.62993,187.79543 0,187.79543 0,152.36233 10.62993,152.36233 10.62993,116.92923 0,116.92923 0,58.464615 10.62993,58.464615 10.62993,0 46.948858,0 46.948858,10.62993 93.897715,10.62993 93.897715,0 129.33082,0 129.33082,10.62993 176.27967,10.62993 176.27967,0 212.5986,0 212.5986,58.464615 223.22853,58.464615 223.22853,116.92923 212.5986,116.92923 212.5986,152.36233 223.22853,152.36233 223.22853,187.79543 212.5986,187.79543 212.5986,223.22853 223.22853,223.22853 223.22853,281.69314 212.5986,281.69314 212.5986,340.15776 176.27967,340.15776 176.27967,329.52783 129.33082,329.52783 129.33082,340.15776 "
           style="fill:none;fill-opacity:1;stroke:#800000;stroke-width:0.35433102;stroke-miterlimit:4;stroke-dasharray:none;stroke-opacity:1" />
      </g>
      <g
         id="g4604"
         transform="translate(468.95708,362.65778)"
         style="fill:none;fill-opacity:1;stroke:#800000;stroke-width:0.35433102;stroke-miterlimit:4;stroke-dasharray:none;stroke-opacity:1">
        <polygon
           id="polygon4602"
           points="93.897715,340.15776 93.897715,329.52783 46.948858,329.52783 46.948858,340.15776 10.62993,340.15776 10.62993,281.69314 0,281.69314 0,223.22853 10.62993,223.22853 10.62993,187.79543 0,187.79543 0,152.36233 10.62993,152.36233 10.62993,116.92923 0,116.92923 0,58.464615 10.62993,58.464615 10.62993,0 46.948858,0 46.948858,10.62993 93.897715,10.62993 93.897715,0 129.33082,0 129.33082,10.62993 176.27967,10.62993 176.27967,0 212.5986,0 212.5986,58.464615 223.22853,58.464615 223.22853,116.92923 212.5986,116.92923 212.5986,152.36233 223.22853,152.36233 223.22853,187.79543 212.5986,187.79543 212.5986,223.22853 223.22853,223.22853 223.22853,281.69314 212.5986,281.69314 212.5986,340.15776 176.27967,340.15776 176.27967,329.52783 129.33082,329.52783 129.33082,340.15776 "
           style="fill:none;fill-opacity:1;stroke:#800000;stroke-width:0.35433102;stroke-miterlimit:4;stroke-dasharray:none;stroke-opacity:1" />
      </g>
      <g
         id="g4608"
         transform="translate(22.500018,362.65778)"
         style="fill:none;fill-opacity:1;stroke:#800000;stroke-width:0.35433102;stroke-miterlimit:4;stroke-dasharray:none;stroke-opacity:1">
        <polygon
           id="polygon4606"
           points="223.22853,46.948858 223.22853,93.897715 212.5986,93.897715 212.5986,129.33082 223.22853,129.33082 223.22853,176.27967 212.5986,176.27967 212.5986,212.5986 176.27967,212.5986 176.27967,223.22853 129.33082,223.22853 129.33082,212.5986 93.897715,212.5986 93.897715,223.22853 46.948858,223.22853 46.948858,212.5986 10.62993,212.5986 10.62993,176.27967 0,176.27967 0,129.33082 10.62993,129.33082 10.62993,93.897715 0,93.897715 0,46.948858 10.62993,46.948858 10.62993,10.62993 46.948858,10.62993 46.948858,0 93.897715,0 93.897715,10.62993 129.33082,10.62993 129.33082,0 176.27967,0 176.27967,10.62993 212.5986,10.62993 212.5986,46.948858 "
           style="fill:none;fill-opacity:1;stroke:#800000;stroke-width:0.35433102;stroke-miterlimit:4;stroke-dasharray:none;stroke-opacity:1" />
      </g>
      <g
         id="g4612"
         transform="translate(245.72855,362.65778)"
         style="fill:none;fill-opacity:1;stroke:#800000;stroke-width:0.35433102;stroke-miterlimit:4;stroke-dasharray:none;stroke-opacity:1">
        <polygon
           id="polygon4610"
           points="223.22853,46.948858 223.22853,93.897715 212.5986,93.897715 212.5986,129.33082 223.22853,129.33082 223.22853,176.27967 212.5986,176.27967 212.5986,212.5986 176.27967,212.5986 176.27967,223.22853 129.33082,223.22853 129.33082,212.5986 93.897715,212.5986 93.897715,223.22853 46.948858,223.22853 46.948858,212.5986 10.62993,212.5986 10.62993,176.27967 0,176.27967 0,129.33082 10.62993,129.33082 10.62993,93.897715 0,93.897715 0,46.948858 10.62993,46.948858 10.62993,10.62993 46.948858,10.62993 46.948858,0 93.897715,0 93.897715,10.62993 129.33082,10.62993 129.33082,0 176.27967,0 176.27967,10.62993 212.5986,10.62993 212.5986,46.948858 "
           style="fill:none;fill-opacity:1;stroke:#800000;stroke-width:0.35433102;stroke-miterlimit:4;stroke-dasharray:none;stroke-opacity:1" />
      </g>
    </g>
    <rect
       style="fill:none;fill-opacity:1;stroke:#800000;stroke-width:0.1;stroke-miterlimit:4;stroke-dasharray:none;stroke-opacity:1"
       id="rect4652"
       width="3"
       height="6.9999995"
       x="348.60809"
       y="-229.00003"
       rx="1.5"
       ry="1.5" />
    <rect
       style="fill:none;fill-opacity:1;stroke:#800000;stroke-width:0.1;stroke-miterlimit:4;stroke-dasharray:none;stroke-opacity:1"
       id="rect4654"
       width="3"
       height="6.9999995"
       x="397.60883"
       y="-229.00003"
       rx="1.4999996"
       ry="1.4999996" />
    <rect
       style="fill:none;fill-opacity:1;stroke:#800000;stroke-width:0.1;stroke-miterlimit:4;stroke-dasharray:none;stroke-opacity:1"
       id="rect4656"
       width="3.0000002"
       height="7.0000033"
       x="348.60809"
       y="-287.00003"
       rx="1.4999996"
       ry="1.4999996" />
    <rect
       style="fill:none;fill-opacity:1;stroke:#800000;stroke-width:0.1;stroke-miterlimit:4;stroke-dasharray:none;stroke-opacity:1"
       id="rect4658"
       width="3.0000007"
       height="7"
       x="397.60883"
       y="-287.00003"
       rx="1.4999996"
       ry="1.4999996" />
    <rect
       style="fill:none;fill-opacity:1;stroke:#800000;stroke-width:0.1;stroke-miterlimit:4;stroke-dasharray:none;stroke-opacity:1"
       id="rect4683"
       width="56"
       height="85"
       x="342.60797"
       y="-142.50005"
       rx="2.5"
       ry="2.5" />
    <ellipse
       style="fill:none;fill-opacity:1;stroke:#800000;stroke-width:0.1;stroke-miterlimit:4;stroke-dasharray:none;stroke-opacity:1"
       id="path4691"
       cx="346.35803"
       cy="-61.250042"
       rx="1.25"
       ry="1.2499993" />
    <ellipse
       ry="1.2499993"
       rx="1.25"
       cy="-61.250042"
       cx="346.35803"
       id="ellipse4693"
       style="fill:none;fill-opacity:1;stroke:#800000;stroke-width:0.1;stroke-miterlimit:4;stroke-dasharray:none;stroke-opacity:1" />
    <ellipse
       style="fill:none;fill-opacity:1;stroke:#800000;stroke-width:0.1;stroke-miterlimit:4;stroke-dasharray:none;stroke-opacity:1"
       id="ellipse4695"
       cx="394.80829"
       cy="-61.250042"
       rx="1.25"
       ry="1.2499993" />
    <ellipse
       ry="1.2499993"
       rx="1.25"
       cy="-119.31805"
       cx="394.80829"
       id="ellipse4699"
       style="fill:none;fill-opacity:1;stroke:#800000;stroke-width:0.1;stroke-miterlimit:4;stroke-dasharray:none;stroke-opacity:1" />
    <ellipse
       style="fill:none;fill-opacity:1;stroke:#800000;stroke-width:0.1;stroke-miterlimit:4;stroke-dasharray:none;stroke-opacity:1"
       id="ellipse4701"
       cx="346.40485"
       cy="-119.33273"
       rx="1.25"
       ry="1.2499993" />
    <rect
       style="fill:none;fill-opacity:1;stroke:#800000;stroke-width:0.1;stroke-miterlimit:4;stroke-dasharray:none;stroke-opacity:1"
       id="rect4719"
       width="15.500001"
       height="16"
       x="345.10803"
       y="-45.500038" />
    <rect
       style="fill:none;fill-opacity:1;stroke:#800000;stroke-width:0.1;stroke-miterlimit:4;stroke-dasharray:none;stroke-opacity:1"
       id="rect4721"
       width="15.500001"
       height="16"
       x="363.10831"
       y="-45.500038" />
    <rect
       style="fill:none;fill-opacity:1;stroke:#800000;stroke-width:0.1;stroke-miterlimit:4;stroke-dasharray:none;stroke-opacity:1"
       id="rect4725"
       width="16.000002"
       height="14"
       x="380.10855"
       y="-45.500038" />
    <rect
       style="fill:none;fill-opacity:1;stroke:#800000;stroke-width:0.1;stroke-miterlimit:4;stroke-dasharray:none;stroke-opacity:1"
       id="rect4733"
       width="56"
       height="25.999998"
       x="342.60797"
       y="-50.500038" />
    <rect
       style="fill:none;fill-opacity:1;stroke:#800000;stroke-width:0.1;stroke-miterlimit:4;stroke-dasharray:none;stroke-opacity:1"
       id="rect4759"
       width="20"
       height="85"
       x="403.60892"
       y="-142.50005" />
    <rect
       style="fill:none;fill-opacity:1;stroke:#800000;stroke-width:0.1;stroke-miterlimit:4;stroke-dasharray:none;stroke-opacity:1"
       id="rect4767"
       width="4.0000005"
       height="8.000001"
       x="415.10907"
       y="-72.000046" />
    <rect
       style="fill:none;fill-opacity:1;stroke:#800000;stroke-width:0.1;stroke-miterlimit:4;stroke-dasharray:none;stroke-opacity:1"
       id="rect4769"
       width="7.0000005"
       height="15.000001"
       x="412.10907"
       y="-97.000038" />
    <ellipse
       style="fill:none;fill-opacity:1;stroke:#800000;stroke-width:0.1;stroke-miterlimit:4;stroke-dasharray:none;stroke-opacity:1"
       id="path4771"
       cx="415.60907"
       cy="-111.00005"
       rx="3.5000002"
       ry="3.5" />
  </g>
  <g
     inkscape:groupmode="layer"
     id="layer2"
     inkscape:label="A"
     style="display:inline">
    <g
       id="g1154"
       style="fill:none;fill-opacity:1;stroke:#800000;stroke-width:0.1;stroke-miterlimit:4;stroke-dasharray:none;stroke-opacity:1"
       transform="translate(337.60989)">
      <path
         sodipodi:nodetypes="cssssccssscc"
         inkscape:connector-curvature="0"
         id="rect1096"
         d="M 19.000001,197.49998 8.75,197.49999 c -2.0775,0 -3.75,-1.6725 -3.75,-3.75 v -1e-5 c 0,-2.0775 1.6725,-3.75 3.75,-3.75 h 12.250001 m 24.066746,-0.007 12.183257,0.007 c 2.0775,0.001 3.75,1.6725 3.75,3.75 v 1e-5 c 0,2.0775 -1.6725,3.75 -3.75,3.75 l -10.250002,-1e-5"
         style="fill:none;fill-opacity:1;stroke:#800000;stroke-width:0.1;stroke-miterlimit:4;stroke-dasharray:none;stroke-opacity:1" />
      <rect
         style="fill:none;fill-opacity:1;stroke:#800000;stroke-width:0.1;stroke-miterlimit:4;stroke-dasharray:none;stroke-opacity:1"
         id="rect1098"
         width="56.000004"
         height="7.5000033"
         x="5"
         y="247.99998"
         ry="3.75"
         rx="3.75" />
      <ellipse
         style="display:inline;fill:none;fill-opacity:1;stroke:#800000;stroke-width:0.1;stroke-miterlimit:4;stroke-dasharray:none;stroke-opacity:1"
         id="ellipse1118"
         cx="8.796772"
         cy="193.66736"
         rx="1.25"
         ry="1.2499993" />
      <ellipse
         ry="1.2499993"
         rx="1.25"
         cy="193.66736"
         cx="57.215553"
         id="ellipse1121"
         style="display:inline;fill:none;fill-opacity:1;stroke:#800000;stroke-width:0.1;stroke-miterlimit:4;stroke-dasharray:none;stroke-opacity:1" />
      <ellipse
         style="display:inline;fill:none;fill-opacity:1;stroke:#800000;stroke-width:0.1;stroke-miterlimit:4;stroke-dasharray:none;stroke-opacity:1"
         id="ellipse1123"
         cx="57.215553"
         cy="251.7757"
         rx="1.25"
         ry="1.2499993" />
      <ellipse
         ry="1.2499993"
         rx="1.25"
         cy="251.7757"
         cx="8.7636976"
         id="ellipse1125"
         style="display:inline;fill:none;fill-opacity:1;stroke:#800000;stroke-width:0.1;stroke-miterlimit:4;stroke-dasharray:none;stroke-opacity:1" />
      <g
         id="text1116"
         style="font-style:normal;font-variant:normal;font-weight:normal;font-stretch:normal;font-size:116.91898346px;line-height:125%;font-family:Courier;-inkscape-font-specification:Courier;letter-spacing:0px;word-spacing:0px;fill:none;fill-opacity:1;stroke:#800000;stroke-width:0.1;stroke-linecap:butt;stroke-linejoin:miter;stroke-miterlimit:4;stroke-dasharray:none;stroke-opacity:1"
         transform="scale(0.94727354,1.0556613)"
         aria-label="A">
        <g
           id="g1139"
           style="fill:none;fill-opacity:1;stroke:#800000;stroke-width:0.1;stroke-miterlimit:4;stroke-dasharray:none;stroke-opacity:1">
          <g
             id="g1142"
             style="fill:none;fill-opacity:1;stroke:#800000;stroke-width:0.1;stroke-miterlimit:4;stroke-dasharray:none;stroke-opacity:1">
            <path
               sodipodi:nodetypes="cccccccccccccccc"
               inkscape:connector-curvature="0"
               id="path1135"
               style="font-style:normal;font-variant:normal;font-weight:normal;font-stretch:normal;font-family:monospace;-inkscape-font-specification:monospace;fill:none;fill-opacity:1;stroke:#800000;stroke-width:0.1;stroke-miterlimit:4;stroke-dasharray:none;stroke-opacity:1"
               d="M 34.886231,171.67356 22.7262,215.28982 h 24.320062 z m -12.717343,8.30839 5.752443,-18.4703 h 13.98689 l 5.662537,18.4559 m 2.045324,7.11896 18.381971,59.65954 H 56.066379 L 49.786551,224.53829 H 19.928822 l -6.165649,22.20776 H 1.8314993 l 18.2706647,-59.6895" />
          </g>
        </g>
      </g>
    </g>
    <g
       transform="translate(212.32432,-105.41098)"
       id="g1202"
       style="stroke:#e80000;stroke-opacity:1">
      <path
         sodipodi:nodetypes="cssssccssscc"
         inkscape:connector-curvature="0"
         id="path1182"
         d="M 19.000001,197.49998 8.75,197.49999 c -2.0775,0 -3.75,-1.6725 -3.75,-3.75 v -1e-5 c 0,-2.0775 1.6725,-3.75 3.75,-3.75 h 12.250001 m 24.066746,-0.007 12.183257,0.007 c 2.0775,0.001 3.75,1.6725 3.75,3.75 v 1e-5 c 0,2.0775 -1.6725,3.75 -3.75,3.75 l -10.250002,-1e-5"
         style="fill:none;fill-opacity:1;stroke:#e80000;stroke-width:0.1;stroke-miterlimit:4;stroke-dasharray:none;stroke-opacity:1" />
      <rect
         style="fill:none;fill-opacity:1;stroke:#e80000;stroke-width:0.01;stroke-miterlimit:4;stroke-dasharray:none;stroke-opacity:1"
         id="rect1184"
         width="56.000004"
         height="7.5000033"
         x="5"
         y="247.99998"
         ry="3.75"
         rx="3.75" />
      <ellipse
         style="display:inline;fill:none;fill-opacity:1;stroke:#e80000;stroke-width:0.1;stroke-miterlimit:4;stroke-dasharray:none;stroke-opacity:1"
         id="ellipse1186"
         cx="8.796772"
         cy="193.66736"
         rx="1.25"
         ry="1.2499993" />
      <ellipse
         ry="1.2499993"
         rx="1.25"
         cy="193.66736"
         cx="57.215553"
         id="ellipse1188"
         style="display:inline;fill:none;fill-opacity:1;stroke:#e80000;stroke-width:0.1;stroke-miterlimit:4;stroke-dasharray:none;stroke-opacity:1" />
      <ellipse
         style="display:inline;fill:none;fill-opacity:1;stroke:#e80000;stroke-width:0.1;stroke-miterlimit:4;stroke-dasharray:none;stroke-opacity:1"
         id="ellipse1190"
         cx="57.215553"
         cy="251.7757"
         rx="1.25"
         ry="1.2499993" />
      <ellipse
         ry="1.2499993"
         rx="1.25"
         cy="251.7757"
         cx="8.7636976"
         id="ellipse1192"
         style="display:inline;fill:none;fill-opacity:1;stroke:#e80000;stroke-width:0.1;stroke-miterlimit:4;stroke-dasharray:none;stroke-opacity:1" />
      <g
         id="g1200"
         style="font-style:normal;font-variant:normal;font-weight:normal;font-stretch:normal;font-size:116.91898346px;line-height:125%;font-family:Courier;-inkscape-font-specification:Courier;letter-spacing:0px;word-spacing:0px;fill:none;fill-opacity:1;stroke:#e80000;stroke-width:0.05;stroke-linecap:butt;stroke-linejoin:miter;stroke-miterlimit:4;stroke-dasharray:none;stroke-opacity:1"
         transform="scale(0.94727354,1.0556613)"
         aria-label="A">
        <g
           id="g1198"
           style="stroke:#e80000;stroke-opacity:1">
          <g
             id="g1196"
             style="stroke:#e80000;stroke-opacity:1">
            <path
               sodipodi:nodetypes="cccccccccccccccc"
               inkscape:connector-curvature="0"
               id="path1194"
               style="font-style:normal;font-variant:normal;font-weight:normal;font-stretch:normal;font-family:monospace;-inkscape-font-specification:monospace;fill:none;stroke:#e80000;stroke-width:0.1;stroke-miterlimit:4;stroke-dasharray:none;stroke-opacity:1"
               d="M 34.886231,171.67356 22.7262,215.28982 h 24.320062 z m -12.717343,8.30839 5.752443,-18.4703 h 13.98689 l 5.662537,18.4559 m 2.045324,7.11896 18.381971,59.65954 H 56.066379 L 49.786551,224.53829 H 19.928822 l -6.165649,22.20776 H 1.8314993 l 18.2706647,-59.6895" />
          </g>
        </g>
      </g>
    </g>
    <g
       transform="rotate(90,96.939982,173.85545)"
       id="g1029"
       style="fill:none">
      <rect
         style="fill:none;fill-opacity:1;stroke:#fa0000;stroke-width:0.01;stroke-miterlimit:4;stroke-dasharray:none;stroke-opacity:1"
         id="rect1011"
         width="56.000004"
         height="7.5000033"
         x="5"
         y="247.99998"
         ry="3.75"
         rx="3.75" />
      <ellipse
         style="display:inline;fill:none;fill-opacity:1;stroke:#ff0000;stroke-width:0.1;stroke-miterlimit:4;stroke-dasharray:none;stroke-opacity:1"
         id="ellipse1013"
         cx="-67.403275"
         cy="193.66736"
         rx="1.25"
         ry="1.2499993" />
      <ellipse
         ry="1.2499993"
         rx="1.25"
         cy="193.66736"
         cx="-18.984474"
         id="ellipse1015"
         style="display:inline;fill:none;fill-opacity:1;stroke:#ff0000;stroke-width:0.1;stroke-miterlimit:4;stroke-dasharray:none;stroke-opacity:1" />
      <ellipse
         style="display:inline;fill:none;fill-opacity:1;stroke:#ff0000;stroke-width:0.1;stroke-miterlimit:4;stroke-dasharray:none;stroke-opacity:1"
         id="ellipse1017"
         cx="-18.984474"
         cy="251.7757"
         rx="1.25"
         ry="1.2499993" />
      <ellipse
         style="display:inline;fill:none;fill-opacity:1;stroke:#ff0000;stroke-width:0.1;stroke-miterlimit:4;stroke-dasharray:none;stroke-opacity:1"
         id="ellipse4762"
         cx="12.236351"
         cy="193.66736"
         rx="1.25"
         ry="1.2499993" />
      <ellipse
         ry="1.2499993"
         rx="1.25"
         cy="251.7757"
         cx="12.236351"
         id="ellipse4764"
         style="display:inline;fill:none;fill-opacity:1;stroke:#ff0000;stroke-width:0.1;stroke-miterlimit:4;stroke-dasharray:none;stroke-opacity:1" />
      <ellipse
         ry="1.2499993"
         rx="1.25"
         cy="103.18073"
         cx="-67.403275"
         id="ellipse905"
         style="display:inline;fill:none;fill-opacity:1;stroke:#000000;stroke-width:0.1;stroke-miterlimit:4;stroke-dasharray:none;stroke-opacity:1" />
      <ellipse
         style="display:inline;fill:none;fill-opacity:1;stroke:#000000;stroke-width:0.1;stroke-miterlimit:4;stroke-dasharray:none;stroke-opacity:1"
         id="ellipse907"
         cx="-18.984474"
         cy="103.18073"
         rx="1.25"
         ry="1.2499993" />
      <ellipse
         ry="1.2499993"
         rx="1.25"
         cy="161.28941"
         cx="-18.984474"
         id="ellipse909"
         style="display:inline;fill:none;fill-opacity:1;stroke:#000000;stroke-width:0.1;stroke-miterlimit:4;stroke-dasharray:none;stroke-opacity:1" />
      <ellipse
         ry="1.2499993"
         rx="1.25"
         cy="103.18073"
         cx="15.940515"
         id="ellipse911"
         style="display:inline;fill:none;fill-opacity:1;stroke:#000000;stroke-width:0.1;stroke-miterlimit:4;stroke-dasharray:none;stroke-opacity:1" />
      <ellipse
         style="display:inline;fill:none;fill-opacity:1;stroke:#000000;stroke-width:0.1;stroke-miterlimit:4;stroke-dasharray:none;stroke-opacity:1"
         id="ellipse913"
         cx="15.940515"
         cy="161.28941"
         rx="1.25"
         ry="1.2499993" />
    </g>
    <path
       style="fill:none;fill-rule:evenodd;stroke:#ff0000;stroke-width:0.26458332px;stroke-linecap:butt;stroke-linejoin:miter;stroke-opacity:1"
       d="m 15.279687,57.79974 v 23.499868 h 7.47448 c 0,0 0,-16.716797 1.932071,-16.915224 0.566528,-1.966598 71.034828,16.915224 71.034828,16.915224 h 4.556024 V 74.571847 L 92.701996,72.542116 C 78.832781,68.825897 87.612763,3.6613926 77.036871,5.6788397 l 0.04202,0.0331 C 67.73542,3.4960629 76.313179,66.299722 55.500002,62.573963 48.223609,60.758185 25.286046,54.296851 22.692796,54.012811 c -3.28703,-0.360037 -4.592969,-0.214697 -4.568832,-0.213017 0,0 -2.844277,0 -2.844277,3.999976"
       id="path4760"
       inkscape:connector-curvature="0"
       sodipodi:nodetypes="cccccccccccscc" />
    <path
       sodipodi:nodetypes="cccccccccccscc"
       inkscape:connector-curvature="0"
       id="path4766"
       d="m 15.279687,89.020593 v 23.499937 h 7.47448 c 0,0 0,-16.716866 1.932071,-16.915293 0.566528,-1.966598 71.034828,16.915293 71.034828,16.915293 h 4.556024 v -6.7278 l -7.575094,-2.02974 C 78.832781,100.04675 85.000003,85.020617 77.103017,85.020617 h 0.04202 c -6.399982,0 -6.424601,12.962545 -17.481267,9.999943 -7.276393,-1.815781 -34.377724,-9.502886 -36.970974,-9.786926 -3.28703,-0.360037 -4.592969,-0.214697 -4.568832,-0.213017 0,0 -2.844277,0 -2.844277,3.999976"
       style="fill:none;fill-rule:evenodd;stroke:#ff0000;stroke-width:0.26458332px;stroke-linecap:butt;stroke-linejoin:miter;stroke-opacity:1" />
    <path
       sodipodi:nodetypes="cccccccccccscc"
       inkscape:connector-curvature="0"
       id="path915"
       d="m 105.76727,57.79974 0.0662,28.391401 7.40838,0 c 0,0 0,-21.60833 1.93208,-21.806757 0.56653,-1.966598 71.03523,21.806757 71.03523,21.806757 l 4.55605,0 0,-11.619294 -7.57514,-2.029731 C 169.32073,68.825897 178.10076,3.6613926 167.52481,5.6788397 l 0.042,0.0331 c -9.3435,-2.2158768 -0.7657,60.5877823 -21.57899,56.8620233 -7.27644,-1.815778 -30.21413,-8.277112 -32.8074,-8.561152 -3.28704,-0.360037 -4.59299,-0.214697 -4.56885,-0.213017 0,0 -2.8443,0 -2.8443,3.999976"
       style="fill:none;fill-rule:evenodd;stroke:#000000;stroke-width:0.26458332px;stroke-linecap:butt;stroke-linejoin:miter;stroke-opacity:1" />
    <path
       style="fill:none;fill-rule:evenodd;stroke:#000000;stroke-width:0.26458332px;stroke-linecap:butt;stroke-linejoin:miter;stroke-opacity:1"
       d="M 105.56615,93.055491 105.5,109.36954 v 11.74997 l 7.7418,0.0847 c 0,0 0,-21.696337 1.93208,-21.894764 0.56653,-1.966598 71.03523,21.894764 71.03523,21.894764 h 4.55605 v -11.70725 l -7.57514,-2.02974 c -13.86929,-3.71624 -7.70203,-18.742394 -15.59907,-18.742394 h 0.042 c -6.40001,0 -6.42463,12.962554 -17.48136,9.999943 -7.27643,-1.815781 -34.37792,-9.502886 -36.97119,-9.786926 -3.28704,-0.360037 -4.59299,-0.214697 -4.56885,-0.213017 0,0 -3.0454,0.330689 -3.0454,4.330665"
       id="path917"
       inkscape:connector-curvature="0"
       sodipodi:nodetypes="ccccccccccccscc" />
  </g>
</svg>
