<?xml version="1.0" encoding="UTF-8" standalone="no"?>
<svg
   xmlns:dc="http://purl.org/dc/elements/1.1/"
   xmlns:cc="http://creativecommons.org/ns#"
   xmlns:rdf="http://www.w3.org/1999/02/22-rdf-syntax-ns#"
   xmlns:svg="http://www.w3.org/2000/svg"
   xmlns="http://www.w3.org/2000/svg"
   xmlns:sodipodi="http://sodipodi.sourceforge.net/DTD/sodipodi-0.dtd"
   xmlns:inkscape="http://www.inkscape.org/namespaces/inkscape"
   version="1.1"
   width="1220mm"
   height="610mm"
   viewBox="0 0 4322.8383 2161.4192"
   id="svg2"
   inkscape:version="0.91 r13725"
   sodipodi:docname="zeroFlick.svg">
  <metadata
     id="metadata32">
    <rdf:RDF>
      <cc:Work
         rdf:about="">
        <dc:format>image/svg+xml</dc:format>
        <dc:type
           rdf:resource="http://purl.org/dc/dcmitype/StillImage" />
        <dc:title></dc:title>
      </cc:Work>
    </rdf:RDF>
  </metadata>
  <defs
     id="defs30" />
  <sodipodi:namedview
     pagecolor="#ffffff"
     bordercolor="#666666"
     borderopacity="1"
     objecttolerance="10"
     gridtolerance="10"
     guidetolerance="10"
     inkscape:pageopacity="0"
     inkscape:pageshadow="2"
     inkscape:window-width="2560"
     inkscape:window-height="1416"
     id="namedview28"
     showgrid="true"
     showguides="true"
     inkscape:guide-bbox="true"
     inkscape:zoom="4"
     inkscape:cx="167.34251"
     inkscape:cy="2046.6267"
     inkscape:window-x="0"
     inkscape:window-y="24"
     inkscape:window-maximized="1"
     inkscape:current-layer="svg2">
    <inkscape:grid
       type="xygrid"
       id="grid4160"
       units="mm"
       spacingx="3.5433102"
       spacingy="3.5433103"
       dotted="true" />
    <sodipodi:guide
       position="7.0866204,2154.3327"
       orientation="0,1"
       id="guide4162" />
    <sodipodi:guide
       position="7.0866204,2154.3327"
       orientation="1,0"
       id="guide4164" />
    <sodipodi:guide
       position="7.0866204,2104.7263"
       orientation="0,1"
       id="guide4166" />
    <sodipodi:guide
       position="7.0866204,2118.8996"
       orientation="0,1"
       id="guide4168" />
    <sodipodi:guide
       position="49.606343,2203.939"
       orientation="1,0"
       id="guide4170" />
    <sodipodi:guide
       position="233.85847,2104.7263"
       orientation="1,0"
       id="guide4172" />
    <sodipodi:guide
       position="92.126065,2104.7263"
       orientation="1,0"
       id="guide4174" />
    <sodipodi:guide
       position="159.44896,2104.7263"
       orientation="1,0"
       id="guide4176" />
  </sodipodi:namedview>
  <!-- Front-->
  <g
     transform="translate(7.4157176,7.5687309)"
     id="g4">
    <polygon
       style="fill:none;stroke:#000000;stroke-width:0.90000075"
       points="127.55916,74.40951 113.38592,74.40951 113.38592,85.03944 99.21268,85.03944 99.21268,74.40951 85.03944,74.40951 85.03944,85.03944 70.8662,85.03944 70.8662,74.40951 56.69296,74.40951 56.69296,85.03944 42.51972,85.03944 42.51972,74.40951 21.25986,74.40951 21.25986,85.03944 0,85.03944 0,67.32289 10.62993,67.32289 10.62993,49.60634 0,49.60634 0,35.4331 10.62993,35.4331 10.62993,17.71655 0,17.71655 0,0 21.25986,0 21.25986,10.62993 42.51972,10.62993 42.51972,0 56.69296,0 56.69296,10.62993 70.8662,10.62993 70.8662,0 85.03944,0 85.03944,10.62993 99.21268,10.62993 99.21268,0 113.38592,0 113.38592,10.62993 127.55916,10.62993 127.55916,0 141.7324,0 141.7324,10.62993 155.90564,10.62993 155.90564,0 170.07888,0 170.07888,10.62993 184.25212,10.62993 184.25212,0 198.42536,0 198.42536,10.62993 212.5986,10.62993 212.5986,0 226.77184,0 226.77184,10.62993 248.0317,10.62993 248.0317,0 269.29156,0 269.29156,17.71655 258.66163,17.71655 258.66163,35.4331 269.29156,35.4331 269.29156,49.60634 258.66163,49.60634 258.66163,67.32289 269.29156,67.32289 269.29156,85.03944 248.0317,85.03944 248.0317,74.40951 226.77184,74.40951 226.77184,85.03944 212.5986,85.03944 212.5986,74.40951 198.42536,74.40951 198.42536,85.03944 184.25212,85.03944 184.25212,74.40951 170.07888,74.40951 170.07888,85.03944 155.90564,85.03944 155.90564,74.40951 141.7324,74.40951 141.7324,85.03944 127.55916,85.03944 "
       id="polygon6" />
  </g>
  <!-- Back-->
  <g
     transform="translate(276.70728,7.5687309)"
     id="g8">
    <polygon
       style="fill:none;stroke:#000000;stroke-width:0.90000075"
       points="127.55916,74.40951 113.38592,74.40951 113.38592,85.03944 99.21268,85.03944 99.21268,74.40951 85.03944,74.40951 85.03944,85.03944 70.8662,85.03944 70.8662,74.40951 56.69296,74.40951 56.69296,85.03944 42.51972,85.03944 42.51972,74.40951 21.25986,74.40951 21.25986,85.03944 0,85.03944 0,67.32289 10.62993,67.32289 10.62993,49.60634 0,49.60634 0,35.4331 10.62993,35.4331 10.62993,17.71655 0,17.71655 0,0 21.25986,0 21.25986,10.62993 42.51972,10.62993 42.51972,0 56.69296,0 56.69296,10.62993 70.8662,10.62993 70.8662,0 85.03944,0 85.03944,10.62993 99.21268,10.62993 99.21268,0 113.38592,0 113.38592,10.62993 127.55916,10.62993 127.55916,0 141.7324,0 141.7324,10.62993 155.90564,10.62993 155.90564,0 170.07888,0 170.07888,10.62993 184.25212,10.62993 184.25212,0 198.42536,0 198.42536,10.62993 212.5986,10.62993 212.5986,0 226.77184,0 226.77184,10.62993 248.0317,10.62993 248.0317,0 269.29156,0 269.29156,17.71655 258.66163,17.71655 258.66163,35.4331 269.29156,35.4331 269.29156,49.60634 258.66163,49.60634 258.66163,67.32289 269.29156,67.32289 269.29156,85.03944 248.0317,85.03944 248.0317,74.40951 226.77184,74.40951 226.77184,85.03944 212.5986,85.03944 212.5986,74.40951 198.42536,74.40951 198.42536,85.03944 184.25212,85.03944 184.25212,74.40951 170.07888,74.40951 170.07888,85.03944 155.90564,85.03944 155.90564,74.40951 141.7324,74.40951 141.7324,85.03944 127.55916,85.03944 "
       id="polygon10" />
  </g>
  <!-- Left-->
  <g
     transform="translate(545.99884,7.5687309)"
     id="g12">
    <polygon
       style="fill:none;stroke:#000000;stroke-width:0.90000075"
       points="131.10247,35.4331 120.47254,35.4331 120.47254,49.60634 131.10247,49.60634 131.10247,67.32289 120.47254,67.32289 120.47254,85.03944 108.95678,85.03944 108.95678,74.40951 86.811095,74.40951 86.811095,85.03944 72.637855,85.03944 72.637855,74.40951 58.464615,74.40951 58.464615,85.03944 44.291375,85.03944 44.291375,74.40951 22.145688,74.40951 22.145688,85.03944 10.62993,85.03944 10.62993,67.32289 0,67.32289 0,49.60634 10.62993,49.60634 10.62993,35.4331 0,35.4331 0,17.71655 10.62993,17.71655 10.62993,0 22.145688,0 22.145688,10.62993 44.291375,10.62993 44.291375,0 58.464615,0 58.464615,10.62993 72.637855,10.62993 72.637855,0 86.811095,0 86.811095,10.62993 108.95678,10.62993 108.95678,0 120.47254,0 120.47254,17.71655 131.10247,17.71655 "
       id="polygon14" />
  </g>
  <!-- Right-->
  <g
     transform="translate(545.99884,92.608128)"
     id="g16">
    <polygon
       style="fill:none;stroke:#000000;stroke-width:0.90000075"
       points="131.10247,35.4331 120.47254,35.4331 120.47254,49.60634 131.10247,49.60634 131.10247,67.32289 120.47254,67.32289 120.47254,85.03944 108.95678,85.03944 108.95678,74.40951 86.811095,74.40951 86.811095,85.03944 72.637855,85.03944 72.637855,74.40951 58.464615,74.40951 58.464615,85.03944 44.291375,85.03944 44.291375,74.40951 22.145688,74.40951 22.145688,85.03944 10.62993,85.03944 10.62993,67.32289 0,67.32289 0,49.60634 10.62993,49.60634 10.62993,35.4331 0,35.4331 0,17.71655 10.62993,17.71655 10.62993,0 22.145688,0 22.145688,10.62993 44.291375,10.62993 44.291375,0 58.464615,0 58.464615,10.62993 72.637855,10.62993 72.637855,0 86.811095,0 86.811095,10.62993 108.95678,10.62993 108.95678,0 120.47254,0 120.47254,17.71655 131.10247,17.71655 "
       id="polygon18" />
  </g>
  <!-- Top-->
  <g
     transform="translate(7.4157176,92.608128)"
     id="g20">
    <polygon
       style="fill:none;stroke:#000000;stroke-width:0.90000075"
       points="155.90564,131.10247 141.7324,131.10247 141.7324,120.47254 127.55916,120.47254 127.55916,131.10247 113.38592,131.10247 113.38592,120.47254 99.21268,120.47254 99.21268,131.10247 85.03944,131.10247 85.03944,120.47254 70.8662,120.47254 70.8662,131.10247 56.69296,131.10247 56.69296,120.47254 42.51972,120.47254 42.51972,131.10247 21.25986,131.10247 21.25986,120.47254 10.62993,120.47254 10.62993,108.95678 0,108.95678 0,86.811095 10.62993,86.811095 10.62993,72.637855 0,72.637855 0,58.464615 10.62993,58.464615 10.62993,44.291375 0,44.291375 0,22.145688 10.62993,22.145688 10.62993,10.62993 21.25986,10.62993 21.25986,0 42.51972,0 42.51972,10.62993 56.69296,10.62993 56.69296,0 70.8662,0 70.8662,10.62993 85.03944,10.62993 85.03944,0 99.21268,0 99.21268,10.62993 113.38592,10.62993 113.38592,0 127.55916,0 127.55916,10.62993 141.7324,10.62993 141.7324,0 155.90564,0 155.90564,10.62993 170.07888,10.62993 170.07888,0 184.25212,0 184.25212,10.62993 198.42536,10.62993 198.42536,0 212.5986,0 212.5986,10.62993 226.77184,10.62993 226.77184,0 248.0317,0 248.0317,10.62993 258.66163,10.62993 258.66163,22.145688 269.29156,22.145688 269.29156,44.291375 258.66163,44.291375 258.66163,58.464615 269.29156,58.464615 269.29156,72.637855 258.66163,72.637855 258.66163,86.811095 269.29156,86.811095 269.29156,108.95678 258.66163,108.95678 258.66163,120.47254 248.0317,120.47254 248.0317,131.10247 226.77184,131.10247 226.77184,120.47254 212.5986,120.47254 212.5986,131.10247 198.42536,131.10247 198.42536,120.47254 184.25212,120.47254 184.25212,131.10247 170.07888,131.10247 170.07888,120.47254 155.90564,120.47254 "
       id="polygon22" />
  </g>
  <!-- Bottom-->
  <g
     transform="translate(276.70728,92.608128)"
     id="g24">
    <polygon
       style="fill:none;stroke:#000000;stroke-width:0.90000075"
       points="155.90564,131.10247 141.7324,131.10247 141.7324,120.47254 127.55916,120.47254 127.55916,131.10247 113.38592,131.10247 113.38592,120.47254 99.21268,120.47254 99.21268,131.10247 85.03944,131.10247 85.03944,120.47254 70.8662,120.47254 70.8662,131.10247 56.69296,131.10247 56.69296,120.47254 42.51972,120.47254 42.51972,131.10247 21.25986,131.10247 21.25986,120.47254 10.62993,120.47254 10.62993,108.95678 0,108.95678 0,86.811095 10.62993,86.811095 10.62993,72.637855 0,72.637855 0,58.464615 10.62993,58.464615 10.62993,44.291375 0,44.291375 0,22.145688 10.62993,22.145688 10.62993,10.62993 21.25986,10.62993 21.25986,0 42.51972,0 42.51972,10.62993 56.69296,10.62993 56.69296,0 70.8662,0 70.8662,10.62993 85.03944,10.62993 85.03944,0 99.21268,0 99.21268,10.62993 113.38592,10.62993 113.38592,0 127.55916,0 127.55916,10.62993 141.7324,10.62993 141.7324,0 155.90564,0 155.90564,10.62993 170.07888,10.62993 170.07888,0 184.25212,0 184.25212,10.62993 198.42536,10.62993 198.42536,0 212.5986,0 212.5986,10.62993 226.77184,10.62993 226.77184,0 248.0317,0 248.0317,10.62993 258.66163,10.62993 258.66163,22.145688 269.29156,22.145688 269.29156,44.291375 258.66163,44.291375 258.66163,58.464615 269.29156,58.464615 269.29156,72.637855 258.66163,72.637855 258.66163,86.811095 269.29156,86.811095 269.29156,108.95678 258.66163,108.95678 258.66163,120.47254 248.0317,120.47254 248.0317,131.10247 226.77184,131.10247 226.77184,120.47254 212.5986,120.47254 212.5986,131.10247 198.42536,131.10247 198.42536,120.47254 184.25212,120.47254 184.25212,131.10247 170.07888,131.10247 170.07888,120.47254 155.90564,120.47254 "
       id="polygon26" />
  </g>
  <path
     style="fill:none;fill-rule:evenodd;stroke:#000000;stroke-width:1px;stroke-linecap:butt;stroke-linejoin:miter;stroke-opacity:1"
     d="m 92.126066,42.519599 -42.519723,0 0,14.173282 42.519723,1.8e-5 0,-14.173259"
     id="path4178"
     inkscape:connector-curvature="0" />
  <path
     style="fill:none;fill-rule:evenodd;stroke:#000000;stroke-width:1px;stroke-linecap:butt;stroke-linejoin:miter;stroke-opacity:1"
     d="m 233.85847,42.519599 -74.40951,0 0,14.173282 74.40951,0 0,-14.173241"
     id="path4180"
     inkscape:connector-curvature="0" />
</svg>
